<?xml version="1.0" encoding="utf-8"?>
<!-- Generator: Adobe Illustrator 21.1.0, SVG Export Plug-In . SVG Version: 6.00 Build 0)  -->
<svg version="1.1" id="Layer_1" xmlns="http://www.w3.org/2000/svg" xmlns:xlink="http://www.w3.org/1999/xlink" x="0px" y="0px"
	 viewBox="0 0 200 200" style="enable-background:new 0 0 200 200;" xml:space="preserve">
<style type="text/css">
	.st0{fill:#A4A6A9;}
	.st1{fill:#EB3594;}
</style>
<path class="st0" d="M160,131.7c0.1,5.3-4.6,10-10,9.9c-6-0.1-9.7-4.1-9.4-10.2c0.2-4.9,4.9-9.3,9.8-9.2
	C155.3,122.3,159.9,126.8,160,131.7z M142.4,161L142.4,161L142.4,161L142.4,161L142.4,161z M146,145.7c-4.1,0-7.5,3.3-7.5,7.4
	c0,0.7,0.1,1.4,0.3,2c0.9,3.1,3.8,5.4,7.2,5.4c2.3,0,4.4-1,5.7-2.7c1.1-1.3,1.7-2.9,1.7-4.7C153.4,149,150.1,145.7,146,145.7z
	 M105.2,183.6c-4.1,0-7.5,3.3-7.5,7.4c0,0.7,0.1,1.4,0.3,2c0.9,3.1,3.8,5.4,7.2,5.4c2.3,0,4.4-1,5.7-2.7c1.1-1.3,1.7-2.9,1.7-4.7
	C112.7,186.9,109.3,183.6,105.2,183.6z M102.1,167.5c0-2.5-2-4.5-4.5-4.5c-2.5,0-4.5,2-4.5,4.5c0,2.5,2,4.5,4.5,4.5
	C100.1,171.9,102.1,169.9,102.1,167.5z M106.9,149.5c0,2.5,2.1,4.6,4.6,4.6s4.6-2.1,4.6-4.6c0-2.5-2.1-4.6-4.6-4.6
	S106.9,147,106.9,149.5z M133.7,96.4c3.2,0,5.9-2.6,5.9-5.9c0-3.2-2.6-5.9-5.9-5.9s-5.9,2.6-5.9,5.9
	C127.8,93.8,130.4,96.4,133.7,96.4z M95,129.4c0,2.5,2,4.5,4.6,4.5s4.6-2,4.6-4.5c0-2.5-2-4.5-4.6-4.5S95,126.9,95,129.4z
	 M111.8,105.8c0,3.6,2.9,6.5,6.5,6.5c3.6,0,6.5-2.9,6.5-6.5c0-3.6-2.9-6.5-6.5-6.5C114.8,99.4,111.8,102.3,111.8,105.8z M114.6,66.6
	c-2.1,4.9,1.4,9.5,6,9.6c3.6,0.1,6.5-2.6,6.6-6.6c0-4.7-4.8-8.2-9.8-5.9C116.2,64.3,115.1,65.3,114.6,66.6z M113.8,83.2
	c-1.3,0.6-2.4,1.7-2.9,3c-2.2,5.1,1.4,9.7,6.2,9.8c3.7,0.1,6.7-2.6,6.8-6.8C123.8,84.4,118.9,80.8,113.8,83.2z M91.3,161.1
	c6.5,0,11.9-5.3,11.9-11.8c0-6.5-5.3-11.8-11.9-11.8c-6.5,0-11.9,5.3-11.9,11.8C79.5,155.8,84.8,161.1,91.3,161.1z M82.1,169.4
	c-7.5,0-13.5,6-13.5,13.5s6,13.5,13.5,13.5s13.5-6,13.5-13.5S89.5,169.4,82.1,169.4z M102.6,75c5.1,0,9.2-4.1,9.2-9.2
	c0-5.1-4.1-9.2-9.2-9.2c-5.1,0-9.2,4.1-9.2,9.2C93.3,70.9,97.5,75,102.6,75z M129.4,108c0,5.1,4.1,9.2,9.2,9.2
	c5.1,0,9.2-4.1,9.2-9.2s-4.1-9.2-9.2-9.2C133.6,98.8,129.4,102.9,129.4,108z M108.3,108.8c0-4.6-3.7-8.2-8.3-8.2
	c-4.6,0-8.3,3.7-8.3,8.2s3.7,8.2,8.3,8.2C104.6,117,108.3,113.3,108.3,108.8z M106.4,30.3c2.1,0,3.8-1.7,3.8-3.8
	c0-2.1-1.7-3.8-3.8-3.8s-3.8,1.7-3.8,3.8C102.6,28.6,104.3,30.3,106.4,30.3z M105.9,39.8c2.1,0,3.7-1.7,3.7-3.7
	c0-2.1-1.7-3.7-3.7-3.7s-3.7,1.7-3.7,3.7C102.1,38.1,103.8,39.8,105.9,39.8z M103.3,48.1c0,4,3.3,7.3,7.3,7.3c4,0,7.3-3.3,7.3-7.3
	s-3.3-7.3-7.3-7.3C106.5,40.8,103.3,44.1,103.3,48.1z M93.6,98.3c3.6,0,6.5-2.9,6.5-6.5c0-3.6-2.9-6.5-6.5-6.5s-6.5,2.9-6.5,6.5
	C87.1,95.4,90,98.3,93.6,98.3z M109.5,81.7c0-2.9-2.4-5.3-5.3-5.3s-5.3,2.4-5.3,5.3s2.4,5.3,5.3,5.3S109.5,84.6,109.5,81.7z
	 M125.7,153.9c-10,0-18,8.1-18,18s8.1,18,18,18s18-8.1,18-18S135.6,153.9,125.7,153.9z M136,129.8c0-8-6.5-14.5-14.6-14.5
	s-14.6,6.5-14.6,14.5c0,8,6.5,14.5,14.6,14.5S136,137.8,136,129.8z"/>
<path class="st1" d="M85.4,97.6c-0.1,6.3-5.5,11.9-11.7,12C67,109.7,61.8,104.2,62,97c0.2-6.3,5-11.4,10.9-11.6
	C79.7,85.2,85.5,90.9,85.4,97.6z M63.8,114.1c-0.2-5.4-4.7-9.8-10.2-9.8c-6.1,0-10.5,4.4-10.4,10.4c0.2,5.8,4.2,9.7,10.1,9.7
	C59.4,124.5,64,120,63.8,114.1z M59.1,142.3c-0.1-4.9-4.9-9.4-9.9-9.2c-4.8,0.2-9.5,5.2-9.2,9.9c0.2,5,5,9.4,10,9.1
	C55,152,59.2,147.4,59.1,142.3z M80.5,47.1c-0.2,3.4,3.7,6.6,7.1,6.2c3.9-0.5,5.5-3.1,5.3-6.8c-0.2-4-2.6-5.6-6.5-5.7
	C82.8,41.3,80.7,43.4,80.5,47.1z M57.4,79.7c0,3.1,1.9,5,4.8,5.3c3.5,0.3,5.6-1.7,5.7-5.2c0.1-3.1-1.7-4.8-5.2-5.3
	C59.8,74.7,57.4,76.1,57.4,79.7z M90.5,33.3c0.2,3.3,2.3,4.5,5.2,4.4c3.3-0.1,4.5-2.1,4.3-5.2c-0.2-3.4-2.2-4.4-5.2-4.4
	C91.5,28.3,90.4,30.3,90.5,33.3z M59.8,129.5c-0.2,1.6,1,2.6,2.4,2.5c1-0.1,1.9-1.1,2.1-2.3C63.9,127,60.1,126.8,59.8,129.5z
	 M101.7,19.9c-1.7-0.7-3.4-2.7-4.9,0.3c-0.5,1,0.1,1.7,0.8,2.1c2.9,1.6,3.4-0.6,4-2.6L101.7,19.9z M75.1,139.5
	c0-2.6-2.1-4.7-4.7-4.7s-4.7,2.1-4.7,4.7c0,2.6,2.1,4.7,4.7,4.7S75.1,142.1,75.1,139.5z M83.6,163c0-2.6-2.1-4.7-4.7-4.7
	s-4.7,2.1-4.7,4.7c0,2.6,2.1,4.7,4.7,4.7S83.6,165.6,83.6,163z M69.1,150.1c0-2-1.6-3.5-3.6-3.5c-2,0-3.6,1.6-3.6,3.5
	c0,2,1.6,3.5,3.6,3.5C67.5,153.7,69.1,152.1,69.1,150.1z M92.3,123.6c0-6.5-5.3-11.7-11.8-11.7s-11.8,5.3-11.8,11.7
	c0,6.5,5.3,11.7,11.8,11.7S92.3,130.1,92.3,123.6z M71.2,167.9c0-6.5-5.3-11.8-11.9-11.8c-6.5,0-11.9,5.3-11.9,11.8
	c0,6.5,5.3,11.8,11.9,11.8C65.9,179.7,71.2,174.5,71.2,167.9z M89,74.4c0-5.1-4.1-9.2-9.2-9.2c-5.1,0-9.2,4.1-9.2,9.2
	c0,5.1,4.1,9.2,9.2,9.2C84.9,83.6,89,79.5,89,74.4z M102.1,20.8c0-1.6-1.3-2.9-2.9-2.9c-1.6,0-2.9,1.3-2.9,2.9
	c0,1.6,1.3,2.9,2.9,2.9C100.8,23.8,102.1,22.4,102.1,20.8z M109.4,18.6c0-1.6-1.3-2.9-2.9-2.9c-1.6,0-2.9,1.3-2.9,2.9
	c0,1.6,1.3,2.9,2.9,2.9C108.1,21.5,109.4,20.2,109.4,18.6z M105.4,12c0-1-0.8-1.8-1.8-1.8s-1.8,0.8-1.8,1.8s0.8,1.8,1.8,1.8
	S105.4,13,105.4,12z M111.6,3.4c0-0.8-0.6-1.4-1.4-1.4s-1.4,0.6-1.4,1.4s0.6,1.4,1.4,1.4S111.6,4.2,111.6,3.4z M110.2,8.8
	c0-1-0.8-1.8-1.8-1.8c-1,0-1.8,0.8-1.8,1.8s0.8,1.8,1.8,1.8C109.4,10.6,110.2,9.8,110.2,8.8z M73.2,63.1c0-1.9-1.5-3.4-3.4-3.4
	s-3.4,1.5-3.4,3.4c0,1.9,1.5,3.4,3.4,3.4S73.2,65,73.2,63.1z M86.4,58.6c0-2.5-2-4.5-4.6-4.5s-4.6,2-4.6,4.5c0,2.5,2,4.5,4.6,4.5
	S86.4,61.1,86.4,58.6z M59.7,93.8c0-2.6-2.1-4.6-4.6-4.6s-4.6,2.1-4.6,4.6c0,2.6,2.1,4.6,4.6,4.6S59.7,96.3,59.7,93.8z"/>
</svg>
