<?xml version="1.0" encoding="utf-8"?>
<!-- Generator: Adobe Illustrator 21.1.0, SVG Export Plug-In . SVG Version: 6.00 Build 0)  -->
<svg version="1.1" xmlns="http://www.w3.org/2000/svg" xmlns:xlink="http://www.w3.org/1999/xlink" x="0px" y="0px"
	 viewBox="0 0 224.8 223" style="enable-background:new 0 0 224.8 223;" xml:space="preserve">
<style type="text/css">
	.st0{fill:#A73C39;}
	.st1{fill:#FFFFFF;}
	.st2{fill:#58301E;}
</style>
<g id="Layer_1">
</g>
<g id="Layer_2">
	<ellipse class="st0" cx="112.2" cy="112.1" rx="104.8" ry="104.8"/>
	<ellipse class="st1" cx="112.2" cy="112.1" rx="63.6" ry="63.6"/>
	<ellipse class="st2" cx="112.2" cy="112.1" rx="58.8" ry="58.8"/>
	<circle class="st1" cx="28.7" cy="113.3" r="2.5"/>
	<circle class="st1" cx="196.7" cy="113.3" r="2.5"/>
	<path class="st1" d="M137.5,79.6c0-1.6-1.8-4-2.6-6.5c0,0-3,0.1-6,0.3c-3,0.2-4.9,1.8-4.9,1.8c-0.6,0.8-2,1.8-2,1.8
		c-0.3,0.4-2,2-2,2s0.1,0.6-0.1,1.6c-0.1,1-0.8,3.2-0.8,4.6c0,1.1,1.3,2.4,1.3,2.4c1.9,0.3,5.9,0.3,5.9,0.3s-0.2,1.1-0.7,2
		c-0.4,1-3.3,1.4-3.3,1.4s1.3,2.3,1.8,3.3c0.4,1.1,1.8,2,1.8,2c2.3,4.1,3.6,6.4,3.6,8.6c0,2.2-1.4,4.8-1.4,4.8
		c0,1.6-1.1,3.5-2.1,4.9c-1,1.4-1.7,2.4-2.2,3.4c-0.5,1-1.4,2.4-1.9,3.4c-0.6,1-1.7,2.1-2.3,2.5c-0.6,0.4-0.6,0.7-0.6,0.7
		s2,2.5,2,3.6c0,0.6-0.2,1-0.2,2.1c0,2,0.8,2.6,0.8,2.6c1-0.2,1.3,0.2,1.9,0.6c1.1,0.6,2.8,1.7,3.4,2c0.6,0.3,4.9,3.5,5.9,4.2
		c1,0.7,2.2,0.7,3.2,1.3c0.6,0.4,2.4,0.4,2.4,2.3c0,1.5-2.2,5.2-3.4,6.7c-0.6,0.8-1.6,1.1-1.6,1.1c-1.8,2.1-2.3,2-2.3,2
		c-0.6,0-1.5,0.2-2.4,0.3c-1.6,0.3-2.8-0.1-4,0c-1.5,0.3-2.4,0.1-3.2,0c-0.8-0.1-4.6,0.2-7,0.2c-2.4,0-2.2,0-3.4-0.2
		c-1.3-0.2-2.2-0.8-2.8-0.8c-0.7,0-2,0.1-3-0.5c-1.1-0.6-2.6-1-4.3-1.3c-1.7-0.2-2.1-0.3-2.8-1.6c-0.7-1.3-3.8-6.4-8.8-12.9
		s-7.4-10.6-7.9-12c-0.5-1.5-1.3-6.2-1.4-9.1c0-2.9-0.1-6.3-0.1-9.5c0-3.2,0.8-3.7,0.9-4.8c0.2-2.2,0.7-2.7,0.8-3.6
		c-0.1-1.3,0.2-2.2,0.2-2.2c1.2-1,4.6-5.4,7.5-7.2c2.4-1.7,6.7-1,9.9-1.9c-1.5-1.7-3.5-2.3-5.2-2.3s-2.5,0.6-2.7,0.2
		c-0.2-0.3,1.4-0.8,1.9-1.4c0.7-0.9,1.6-0.8,2.8-1.6c0,0,3.4,0.7,6.1,1.7c2.7,1,3.7,0.7,3.7,0.7c9.1-8.1,16.8-13.8,16.8-13.8
		c3.6-0.8,10.8-1.4,10.8-1.4s0.9,0.5,2.3,0.6s1.5,0.7,1.5,0.7c0.7,1.2,1.2,1.3,1.5,1.8c0.8,1.4,3,2.9,3,4.7c0,2.7-1.3,6.8-1.3,6.8
		s-1.7,0.2-3.2,0.2c-1.4,0-1.4,0-2.5,0s-1.1-0.4-1.1-0.4S136.5,81.2,137.5,79.6z M116.8,92.5c-2.2,0.7-2.5,2.9-5.4,3
		c-2.8,0-4.3-0.1-4.6-1.3c-0.3-1.2-0.4-1.4-1.4-2.2c-12.4,0-17.3,2-19.4,8.7c0,0,0.1,0.9-0.2,2.6c-0.4,1.8-0.6,5.7-0.7,7.8
		c-0.1,2.1-0.1,11.4-0.1,11.4s8.9,13.7,13.8,19.8c1.1,1.5,3.1,4.5,6.2,4.9c3.2,0.5,5.9,0.4,9.8,0.7c3.8,0.4,9.7,0.2,13.8-3
		c0,0,0-0.6,0.6-0.7c0,0-0.8-0.6-2.2-1.7c-1.5-1.1-2.5-2-3.3-2.4c-0.8-0.4-1.4-0.4-1.8-1.2c-0.4-0.7-1.5-1.5-2.2-1.4
		c-0.7,0.1-1.8,0.5-1.7-0.4c0-0.9-0.1-2.8-0.1-4c0-1.3,0.3-3.3-0.2-3.9c-0.6-0.6-1.1-0.7-1.4-1.8c-0.2-1.1-0.6-3.6-0.2-4.3
		c0.5-0.7,1.9-2.8,2.5-4.1c0.7-1.2,6.1-7.6,6.1-12.5C124.8,101.9,119.1,95.3,116.8,92.5z"/>
	<path class="st1" d="M98.6,136.2c0,0,0.3-0.5,0.7-0.1c0.3,0.4,0.6,0.5,0.6,0.5s0.2-0.9-1.5-2.9c0,0-0.6-0.8-0.9-1.4
		c-0.3-0.6-0.8-1.3-1.4-2.2c-0.6-1-0.7-1.2-1-2.8c-0.4-1.6-1.9-4.7-1.9-4.7s-0.1-0.6-0.3-1.4c-0.2-0.8-0.8-2.6-0.8-4.1
		c0-1.5,0.1-3.4,0.1-5.2c0-1.8-0.1-3.3,0.2-3.9c0.3-0.6,0.2-1.9,0.4-2.3c0.2-0.4,1.6-2.1,1.6-2.1s0.5,0,1.9-0.4
		c1.4-0.4,6-1.6,8.2-1.6s5.8,0.8,6.7,0.9c1,0.1,2,0.8,3,1.6c1,0.8,1.9,1.3,1.9,1.3s0.1,0.4-0.2,1c-0.3,0.6-0.7,1.2-0.7,1.7
		c0,0-1.2,2.4-2,3.9c-1.1,2-1.5,3.4-1.5,3.4s-0.8,1.5-1.5,3.2c-0.7,1.7-1,2.7-1.5,3.7c-0.1,0.2-0.3,1.6,0,3.9
		c0.3,2.3,0.3,2.1,0.6,3.1c0.3,1,1.3,5.6,4.1,11.1c0,0-0.3,0.3-1,0c-1-0.4-0.9-0.8-1.6-1.3c-0.7-0.5-1.2-0.8-2.1-1.9
		c-1.1-1.1-1.3-2.2-2.1-2.8c0,0-0.1-0.8-0.6-2c-0.5-1.2-2.1-3.8-2.8-5.1c-0.6-1.3-1.9-3.4-2.8-4.9c-0.9-1.5-1-1.9-1-3.5
		c0.1-2.5-0.1-3.5-0.1-4.7c0-1.2,0.1-1.9,0.4-2.7c0.3-0.8,0.1-2.2,1.6-2.5c0,0,1.1-0.1,2,0s2.2,0,2.2,0s2.3,1.1,2.2,1.9
		s-0.3,1.7-0.3,2.9c0,0,0,0.6-0.3,1.3c-0.3,0.7-1.8,3.7-1.8,3.7s0-1.2,0-1.9s-0.8-1.6-1.5-1.6c-0.7,0-1.6,0.3-2.1,2.2
		c0,0-0.2,0.3,0.3,2.2c0.5,2,1.2,3.4,2.9,3.4s2.1-1.8,2.1-2.6c0-0.8,0.5-1.7,0.8-2.2c0.2-0.5,1-2.3,1.5-3.3c0.5-1.1,1.3-3.1,1.3-4
		c0-2.2-1.8-5.6-4.2-5.6c-2.3,0-3.9,0-5.3,0.3s-3.1,0.8-3.7,0.9s-0.8,0.8-1,2.5c-0.3,1.7-0.5,2.6-0.5,3.7c0,1.1,0.1,1.4,0,2
		c-0.1,0.5-0.4,1.2-0.4,2.6s0.2,2,0.9,3.3c0.2,0.5,0.3,1.3,1.1,2.3c0,0,0.9,1.4,1.4,2.8c0.6,1.4,1.2,2.3,1.9,3.3
		c0.8,1,1.3,3.6,3.4,6c0.3,0.5,1.1,2,1.8,2.8c0.7,0.8,0.8,1.2,2.5,2.6c0.6,0.5,0.9,1.1,1.5,1.6s4.5,2.8,6.9,2.8c2.2,0,2.9-1.2,2-2
		c-1-0.9-2.2-2-2.9-3.7c-0.9-1.8-1.4-4-1.9-4.9c-0.5-0.9-1-2.1-1.5-4c-0.5-1.9-0.9-3.6-0.9-5.5c0-1.9,0.2-3.6,1.5-5.5
		c1.6-2.4,2-3.8,2-3.8s1.1-1.1,1.3-2.6c2-1.6,4.5-6.6,4.5-7.6c0-1-0.9-1.2-1.2-2c-0.3-0.9-1.9-1.6-2.2-2.2c-0.4-0.7-1.4-2.6-2.9-2.6
		c-1.1,0-0.8,1.4-2.8,1.4c-1.9,0-4.5-0.1-9.8-2c0,0-0.6-0.2-2.1,0.2c-1.4,0.4-3.8,0.5-6,0.7s-3.7,1.2-3.9,3.4
		c-0.2,2.2-1.3,5.6-1.3,9s0,6.6,0,8.6c0,3.3,2.5,6.5,2.8,7.5c0,0,1.2,1.8,3.3,4.6C96.8,134.4,98.6,136.2,98.6,136.2z"/>
	<path class="st1" d="M34.2,72.5L32,67.8c-5.4,1.5-8.9,7.6-8.9,12.3c0,7.3,6,12.5,12.9,12.5c7.9,0,12.5-7.1,12.5-12.7
		c0-3.2-1.1-5.1-1.1-5.1l-4.6,1.7c0,0,0.7,1.9,0.7,3.7c0,4-3.6,7-7.2,7s-8.1-2.7-8.1-7.3C28.3,75.1,32.4,73.2,34.2,72.5z"/>
	<polygon class="st1" points="40.3,50 36.5,53.9 54.1,70.8 57.8,66.9 51.5,60.7 59.2,53.2 65.8,59.2 68.6,55.6 51.4,38.8 48,41.9 
		56,50 48.3,58 	"/>
	<polygon class="st1" points="69.7,26.8 65.6,29 77.1,50.5 81.1,48.3 	"/>
	<path class="st1" d="M93.5,44l-4.7,0.8L84,21c0,0,11.4-2.2,12.6-2.2c5.7,0,8.9,4,8.9,8.5c0,4.5-3.6,7.2-7.7,8.1
		c-4.1,0.9-5.7,1.3-5.7,1.3L93.5,44z M94.2,23.9l-3.8,0.7l1.5,7.2c0,0,1.2-0.2,4-0.8c2.8-0.6,4-1.9,4-3.7
		C99.9,25.5,98.8,23,94.2,23.9z"/>
	<path class="st1" d="M141.1,31.4c0,6.5-4.9,12.4-12.3,12.4c-7.4,0-14.3-5.6-14.3-13.4c0-5,3.4-12.5,12.4-12.5
		C134.3,17.9,141.1,23.5,141.1,31.4z M127.6,23c-5.8,0-7.3,5.2-7.3,7.8c0,4.4,3.6,7.8,8,7.8c3.8,0,7-3.5,7-7.9
		C135.4,26.4,131.7,23,127.6,23z"/>
	<polygon class="st1" points="170.6,35.7 152.9,25.2 150.5,28.7 157.7,33 147.3,50.1 151.5,52.5 162.1,35.5 168.1,39.3 	"/>
	<polygon class="st1" points="184,48.5 180.6,44.7 162.3,60.9 173.3,73.9 177.2,71 168.7,61.3 	"/>
	<polygon class="st1" points="201.6,88.2 205.6,86.8 199,70 176.1,78.5 182.8,95.7 187,94.2 181.7,81.6 185.9,80 189.8,89.7 
		194,88.3 190.2,78.6 196.6,76 	"/>
	<polygon class="st1" points="27.5,140.3 35.7,137.2 31.6,142.8 38.4,144.3 30.2,147.5 31.3,150.3 43.9,145.5 42.8,142.5 
		36.2,141.1 40.3,135.8 39.1,132.8 26.5,137.6 	"/>
	<polygon class="st1" points="50.8,161.5 53,160 47.2,151.5 36.1,159.1 41.8,167.7 44.1,166.2 40,160.1 42.2,158.5 45.8,163.8 
		48.1,162.3 44.5,157 46.7,155.5 	"/>
	<polygon class="st1" points="59.4,166.7 56.8,164.4 55.7,172.4 47.5,174.3 50.1,176.6 55.4,175.2 54.5,180.7 57.2,183.1 
		58.3,174.7 66.1,172.9 63.6,170.6 58.6,171.9 	"/>
	<polygon class="st1" points="74.1,178.6 71.6,177 64.4,188.5 67,190.1 	"/>
	<path class="st1" d="M88.6,189.4l2.6-1.5c-1.4-2.3-3.6-4.2-6.8-4.2c-4.3,0-7,3.6-7,7.2c0,4.4,3.8,7,7.3,7c2,0,3.4-1,3.4-1l-1.1-2.5
		c0,0-1.2,0.7-2.6,0.7s-3.9-1.1-3.9-4c0-2.9,2.2-4.5,4.1-4.5C86.6,186.5,87.9,187.9,88.6,189.4z"/>
	<path class="st1" d="M109.5,202.6l-3.1-0.4l-0.9-3.2l-5.7-0.7l-1.6,2.9l-3.1-0.4l7.3-12.9l2.8,0.4L109.5,202.6z M103.5,191.8
		l-2.3,4.1l3.6,0.5L103.5,191.8z"/>
	<polygon class="st1" points="119.9,188.6 117,188.9 118.4,202.3 121.4,202 120.5,193.5 127.9,201.4 130.4,201.2 129,187.6 
		126.1,187.9 126.9,196.2 	"/>
	<path class="st1" d="M150.5,184.1l0.8-2.9c0,0-0.8-0.4-2.3-0.4c-4.3,0-7.6,3.3-7.6,7.1s2.8,7.2,6.8,7.2s6.6-2.9,7.6-5l-2.4-5.4
		l-5.3,2.4l1,2.4l2.7-1.3l0.8,1.8c0,0-1.5,2.2-4,2.2c-2.5,0-4.1-2.3-4.1-4.5c0-2.2,1.8-4.1,4.2-4.1
		C149.7,183.8,150.5,184.1,150.5,184.1z"/>
	<path class="st1" d="M165,170.6c2.7,0,4.4,2.7,4.4,4.4c0,1.6-0.7,2.5-0.7,2.5l5.6,1.8l-2.8,2.2l-4.9-1.7l-1.8,1.4l2.6,3.4l-2.4,1.9
		l-8.3-10.7l5-3.9C162.9,171,163.8,170.6,165,170.6z M163.4,174.1l-2.6,2l2.3,3.1l2.4-2c0,0,1-0.7,1-1.7c0-1-1-1.9-1.8-1.9
		C164,173.6,163.6,173.9,163.4,174.1z"/>
	<polygon class="st1" points="172.5,161.7 170.6,163.9 180.8,172.7 182.8,170.4 	"/>
	<polygon class="st1" points="178.7,152.8 177.2,155.3 188.9,162.2 193.8,153.8 191.4,152.5 188,158.2 	"/>
	<polygon class="st1" points="185.4,138.4 184.4,141.2 197.3,145.5 200.3,136.2 197.7,135.3 195.6,141.7 	"/>
</g>
</svg>
