<svg xmlns="http://www.w3.org/2000/svg" viewBox="0 0 160.84 192.44"><defs><style>.cls-1{fill:#fff;}</style></defs><title>Asset 1</title><g id="Layer_2" data-name="Layer 2"><g id="Layer_1-2" data-name="Layer 1"><path class="cls-1" d="M160.76,88.76c-.89-26.78-17.58-49.27-39.82-61.92l0,.12.11,0H121l0,0h0l0-.12h0v0a86.15,86.15,0,0,0-14.55-6.59l-.42.17-.1-.35a81.78,81.78,0,0,0-14.75-3.5v.07l-1.33-.06v-.17q-1.84-.23-3.69-.36l.28.38L86.07,16c-1.84-.14-3.69-.23-5.53-.23H80.3c-2.22,0-4.44.11-6.65.31l0,0c-.15.1-.3.23-.32.21a1.44,1.44,0,0,1-.18-.21,80.59,80.59,0,0,0-15.83,3.16v.05h-.11A86.3,86.3,0,0,0,28,35a1.24,1.24,0,0,1-1.19,1C11.39,49.07.79,67.57.08,88.76,0,89.29,0,89.83,0,90.38c0,.16,0,.31,0,.47V91H0a16.56,16.56,0,0,0,.36,2.89l.26-.07a.7.7,0,0,1,0,.17l-.25.07c1.47,6.46,6.7,11.24,13,11.24H92.49l.11-.11.11.11h14.7c-.66-2-.74-2.36-.18-3.35l0-.07H13.38c-5.34,0-9.71-4.83-9.93-11l0-.59c0-.38,0-.77.07-1.18v-.23c.62-18.66,9.4-36.28,24.72-49.62A81.88,81.88,0,0,1,70.94,19.86l-.3-.42c.49,0,.83-.13.91,0a1,1,0,0,1,.17.36,72.45,72.45,0,0,1,8.55-.54H81l0-.07h0l.2,0,0,.1a74.94,74.94,0,0,1,17.48,2.28c1.67-1,2.1-.89,3.07.62l-.24.13a82.36,82.36,0,0,1,18.57,8h2.64a7.5,7.5,0,0,1-.81,1.11c.89.55,1.78,1.12,2.65,1.71l0-.16-.09-.18h.06l0,.14.13.27a81.93,81.93,0,0,1,7.93,6.07c15.32,13.34,24.11,31,24.73,49.62v.21c0,.42.06.8.07,1.13l0,.67c-.23,6.17-4.59,11-9.93,11H107.59a7.76,7.76,0,0,1-.08,3.43h7.55l-.17,0a.61.61,0,0,1,.05-.45c.1-.08.33,0,.55,0l0,.5h31.93c7.2,0,13.06-6.35,13.36-14.3h0v-.15c0-.16,0-.31,0-.47C160.84,89.83,160.81,89.29,160.76,88.76Zm-59.37,14.87a1.86,1.86,0,0,1,.18.21s-.07.08-.1.12l-.19-.2Zm-1.61-1,.52.42-1.52,1.72A1.85,1.85,0,0,1,99.77,102.65ZM89.06,104.1v.09l-.08,0Zm-26.29-1.33.12.12-.12.12s-.11-.08-.11-.12S62.73,102.81,62.77,102.77Zm-20.51,0c0-.06.28,0,.43,0l-.09.51-.38,0A1.24,1.24,0,0,1,42.26,102.79ZM1.65,85.44s-.1-.06-.15-.09l.18-.26h0l.15.1A2.45,2.45,0,0,1,1.65,85.44ZM28.91,37.72l-.26-1.41.51,0,.18,1.38Zm1.45-2-.61-1.86C30.75,34.42,30.9,34.8,30.35,35.76Zm1.5-2.88h-.13l.05-.2s.09,0,.1.08S31.87,32.84,31.86,32.88ZM72.78,17.7c-.06,0-.14,0-.16,0s0-.11,0-.17l.17,0Zm11.83-.13c0-.05-.07-.12-.05-.16s.09-.06.14-.09l.14.11Zm20.93,5.72,0-.14.13,0ZM108,21.54l0-.13.1.08Zm4.56,2.66c-.18-.16-.41-.3-.52-.5a1.86,1.86,0,0,1-.07-.67l.4-.08.41,1.08Zm2.94.89.09-.24.07.21Zm1.74,2.55,0-.46,1-.13.07.34ZM125,29.57h-.06l.11,0Zm.73,4.06h0l-.31-.13c0-.1.08-.26.15-.29s.2.07.31.12Zm.32-2.88L126,30.7l.08,0Zm22.17,24.36-.61-.59.17-.18.6.6Z"/><path class="cls-1" d="M124.54,32.91h0v0h0Z"/><path class="cls-1" d="M124.52,32.77h0Z"/><polygon class="cls-1" points="120.93 26.83 120.93 26.83 120.94 26.84 120.93 26.83"/><path class="cls-1" d="M50.76,5.8A84.3,84.3,0,0,0,12.3,36.23a.29.29,0,0,0,.37.42c4.25-2,7,.32,12.24-5.47,7.72-8.46,0-10.66,13.55-17.65,17.3-8.91,18.43,3.31,28,0s3.68-8.08,14-8.08H81c0-.22-.06-.44-.11-.62A1,1,0,0,1,82.51,5l.47.6c2.19.26,3.25.87,4,1.69l.54-1.06c2.59.61,2.8.86,2.21,2.61L87.55,8a10,10,0,0,0,5.18,4.83,3.51,3.51,0,0,1,.66-2.23s0,0,0-.07l-.12-.52-.05-.24h.06l.17.76,0,.07a2.17,2.17,0,0,1-.51,2.3c.46.2,1,.4,1.51.59,9.56,3.31,10.68-8.91,28,0,13.56,7,5.84,9.19,13.56,17.65,5.29,5.79,8,3.48,12.24,5.47a.29.29,0,0,0,.37-.42,79.26,79.26,0,0,0-9.79-11.73,10.2,10.2,0,0,1-3.44-1.63l1-.73a85.75,85.75,0,0,0-15.63-11.29l-.35.23a2.24,2.24,0,0,1,.08-.38c-1.05-.59-2.11-1.16-3.19-1.71l-.73.48-.19-.22a2.05,2.05,0,0,1,.4-.38.56.56,0,0,1,.17,0A81.64,81.64,0,0,0,80.54,0H80.3A80.36,80.36,0,0,0,50.77,5.79l.21.32ZM25.6,30.14s-.08,0-.13,0l.16-.15C25.61,30.06,25.62,30.12,25.6,30.14Zm118.87,5.23s.1,0,.12,0,0,.08,0,.12l-.19,0Zm-3.38-3.72v.14l-.13-.05Zm-4-.75V31h-.11s0-.08,0-.11S137,30.9,137,30.9ZM109.3,9l.08.09-.12,0ZM108,6.63l.6.49-.14.24L107.76,7Zm-7.67,1.95c.07,0,.21,0,.31.06h0V9l-.43-.1C100.26,8.77,100.26,8.62,100.33,8.58Zm-.75,2.9a1.92,1.92,0,0,1,0,.28s-.09,0-.14.05a2.3,2.3,0,0,1-.06-.28A.72.72,0,0,1,99.58,11.48ZM98.07,9.11l0,.14-.13,0Zm-1.74-3c.05,0,.07.19.13.33a1.32,1.32,0,0,1-.5.06c-.07,0-.09-.25-.14-.39A2.3,2.3,0,0,1,96.34,6.13ZM85.06,3.62l-.11.08,0-.14Zm-2.29-.07v.14h-.11ZM82,1.48c-1,.38-1.3-.05-1.41-.77ZM74.32,2h0l-.07-.09S74.32,2,74.32,2ZM60.23,12.2l.62.8-.24.21-.75-.78Zm-1.7-2s.06.08.09.12a.65.65,0,0,1-.18,0s0-.09,0-.14S58.51,10.14,58.54,10.16Z"/><path class="cls-1" d="M93.43,10.58l-.17-.76H93.2l.05.24.12.52Z"/><path class="cls-1" d="M93.24,9.82h0Z"/><path class="cls-1" d="M0,125.78v1.39q0,4.07,3.4,9,4.38,3.57,7.9,3.57a80.55,80.55,0,0,1,8.68-.78,5.83,5.83,0,0,1,2,.78q.78,0,1.07-4.5V131a1.22,1.22,0,0,0-.92-1.24q-.46,0-1.24,2-3.89,3.57-7.27,3.57h-.46q-5.9-1.2-5.9-7v-1.24a11.38,11.38,0,0,1,.17-1.7q2-7.44,6.81-7.44,3.59,0,7.75,4,.68,0,.92-3.42a12.89,12.89,0,0,0-1.24-5.57,8.78,8.78,0,0,1-2.63.93h-.46a38.76,38.76,0,0,0-6.2-.93h-.17a13.43,13.43,0,0,0-4.18.61Q0,116.68,0,125.78Zm2.74,6.65,0-.1.1,0s0,.08,0,.1S2.78,132.42,2.74,132.43ZM16,139.06l-.06.09,0-.11Zm-3.29-3c.36.77,0,1.21-.67,1.82C11.67,136.94,11.73,136.39,12.68,136.11ZM6.32,124.8s.08,0,.12,0l0,.12-.12,0S6.3,124.81,6.32,124.8Zm-1-5.49.17.26-.78.52-.17-.26Z"/><path class="cls-1" d="M51.56,116.53q1.87-1.55,1.87-2.33,0-.54-1.72-.78H49.09q-3.74,0-7.33.31v.3q2.33,3.15,2.33,4.51-.37,4.51-.93,4.51H41q-4.51,0-4.51-1.7v-4.2q0-.94,2.18-2.33v-.17l-.15-.31q0-.87-10.27-1.24-1.4,0-1.41,1.24v.31q0,.15.78.78,1.87,0,1.87,18.84a5.27,5.27,0,0,1-.15,1.24,10.78,10.78,0,0,0-1.57,3.57q0,.63,9.2.63,1.39,0,1.39-.46v-.31l-.15-.78Q36,136.79,36,130.68a4.39,4.39,0,0,1,.17-1.09q0-1.7,6.37-1.7h.17q.79,0,1.24,6.07a6.83,6.83,0,0,1-1.55,4.35v.63q0,.63,3,.63h5.29a4.26,4.26,0,0,0,2.48-.94A1.91,1.91,0,0,0,52,137.07c-.2,0-.42-3.37-.65-10.07l-.55.63a1.81,1.81,0,0,1,.51-1.79c-.08-2.37-.16-5.1-.24-8.21Zm-8.77-1,.1-.08,0,.12Zm-9.88,20.24h0l-.17-.12.06-.09.18.1Zm.59-18.5L33.4,117c.05,0,.12,0,.16,0s0,.1.06.15Zm3,6.16s-.1,0-.11-.07,0-.08,0-.13l.18.1Zm7.82-5.5-.14-.08a2.51,2.51,0,0,1,.14-.24l.14.07Zm.38,10.33s-.07-.06-.11-.1l.11-.11.11.11S44.69,128.23,44.65,128.23ZM46,138.55c-.15-.15-.35-.27-.41-.45s.11-.3.26-.63c.21.32.38.48.41.66S46.08,138.41,46,138.55Zm1.21-7.95,0-.17h0l.29-.08a.7.7,0,0,1,0,.17A2.2,2.2,0,0,1,47.19,130.6ZM48.46,122s-.1-.06-.15-.09l.18-.26h0l.15.1A2.45,2.45,0,0,1,48.46,122ZM50,117.21l-.12,0,0-.12s.1,0,.11,0S50,117.17,50,117.21Z"/><path class="cls-1" d="M83,137.84q-6.33-7.07-6.88-10.47,3.9-2.85,3.9-4.53a6.73,6.73,0,0,0-.31-2.5,5.62,5.62,0,0,0-4.05-5.77c0-.14-.39-.27-1.15-.4v0l-.09,0c-2.15-.36-7.15-.69-15-1a3.29,3.29,0,0,0-2.81,1.26v.93q2.66,2.15,2.66,4.38-.17,2.18-.17,3.74v1.66c.05-.11.11-.22.18-.35l.29-.5a8.52,8.52,0,0,1-.06,4l0,.11.06.12.72.79-.27.18-.48-1-.1-.11s0,0,0-.07c-.17-.53-.31-.94-.4-1.29v6.32a5.15,5.15,0,0,1-.31,2,17.9,17.9,0,0,0-1.41,3.42v.32l.31.48q3.13.15,4.68.15h3.13q2.5-.11,2.5-.78v-.63q-1.72-1.52-1.72-2.35v-3.28a3.49,3.49,0,0,1,1.26-3,23.77,23.77,0,0,1,5.94,6.09,6.45,6.45,0,0,0-1.41,2.5v.15q0,1,10.94,1.11ZM59.64,119.68l-.08-.21.11-.05a1.71,1.71,0,0,1,.08.21ZM70,114.77l0,.15-.11-.1Zm-4.59,1.88c.05,0,.12,0,.15,0s0,.1,0,.16l-.24,0Zm1.54,11.44a.61.61,0,0,1,.05-.45c.1-.08.33,0,.55,0l0,.55A3,3,0,0,1,66.94,128.1Zm2.22-3.43-.76-.17.12-.41.72.31Zm-3.44-.26h-.15q-.32-3.39-.31-5.62,0-.63,1.26-.63h1.09q2.72,0,3.13,2.18Q70.73,123.12,65.72,124.41ZM71.84,133h0l0-.13.14.17ZM72.47,117h0l-.34,0a1.61,1.61,0,0,1,.19-.37s.19.08.3.13Zm2.95-1.63a2.87,2.87,0,0,1-.58-.16l.3-.49a2,2,0,0,1,.4.34C75.58,115.07,75.46,115.33,75.42,115.33ZM79.48,136s0-.12.05-.14.09,0,.14,0l0,.15Z"/><path class="cls-1" d="M88.05,138.77v.46q0,.48,1.74.48h8a1.07,1.07,0,0,0,1.11-.63,3.82,3.82,0,0,0-.79-1.74q-1.41,0-1.41-19.91a8.72,8.72,0,0,1,.15-1.28q1.74-1.7,1.74-2.37v-.31c0-.17-.1-.28-.31-.31h-.63q-1.48,0-5.53.31-1.13,0-4.28-.15-.94.15-.94.46v.31A17.76,17.76,0,0,1,89.31,117q0,2.33-.15,4.11.63,10.9.63,13.91v.15Zm7.4-1.91,0,.08-.08,0Zm-4.12-8.69.17.18-.14.09s-.09-.08-.1-.12S91.31,128.21,91.33,128.16Z"/><path class="cls-1" d="M123.95,132a16.82,16.82,0,0,0-.76-3.92q-.87-2.24-6.94-4.68-6.05-1.18-6.05-3.18v-.59q0-1.72,3-2h.91a12.23,12.23,0,0,1,4.09.74,17.18,17.18,0,0,0,3,2.89q.54,0,.91-.91-.37-7-.76-7a15.22,15.22,0,0,1-2.11.3h-1.52q-4-.59-4.83-.59h-1.2a9.4,9.4,0,0,0-5,1.65q-3,3.76-3,5.76a7.24,7.24,0,0,0,.91,3.77,2.19,2.19,0,0,0,.16.83l.21,0c0,.09,0,.19-.06.28q1.39,2.39,8.9,3.68,2.83,0,3.77,3.78v.31q0,1.5-3.33,2.26-2.54,0-7.84-3.48-1.56-2.4-2.42-2.4h-.15a1.46,1.46,0,0,0-.76,1.5V132a25,25,0,0,0,1.05,7.25,17.17,17.17,0,0,0,3-.74,91.72,91.72,0,0,0,9.21,1.2h.15q7.4-3.28,7.4-6.81Zm-3.22-16.12,0,.16-.14-.19ZM118,117.79l.44.09-.46.26C117.89,118.05,117.95,117.91,118,117.79Zm-1.44-1.26.15.26-.14.09a2,2,0,0,1-.14-.26S116.48,116.56,116.52,116.53Zm-8.38,6h0l-.09.54-.13.76h-.05l-.15.48.15-.48.13-.76.08-.54h.06l0-.19h0v.07h0l0,.11h0Zm-3.83,14.35a1.85,1.85,0,0,1-.27-.13h0l.19-.23a1.7,1.7,0,0,1,.17.24S104.33,136.89,104.31,136.89Zm7.34,1.39-.09-.07.11,0Z"/><path class="cls-1" d="M108,123.06h.06l.08-.54h-.06Z"/><path class="cls-1" d="M108,123.06l-.13.76.05,0,.13-.76Z"/><path class="cls-1" d="M160.84,122.71V120.6q0-2.66-3.4-5.66,0-1.5-15.21-1.78h-3.89q-1.24,0-1.46.65v.65A4.49,4.49,0,0,1,138,116.4q1.46,0,1.46,17.32a32.1,32.1,0,0,1-1.78,5.35q0,.65,2.42.65h4.05a14.6,14.6,0,0,0,4.05-.65v-.33a4.24,4.24,0,0,1-1.3-2.26v-4.87Q160.84,130.15,160.84,122.71Zm-17,11.41s.24,0,.38.07l-.23.68-.39-.1A4.67,4.67,0,0,1,143.88,134.12Zm-.21,5.13c.07-.22.42-.34.65-.51l.54.92ZM151.51,128l.18-.16,0,.25Zm1.24-7.18q-2.07,4.86-5.35,4.87h-.17q0-1.48-.65-7a4.17,4.17,0,0,1,1.94-.48h.17q4.05.72,4.05,2.42Zm3.74-3.88a2,2,0,0,1-.14-.26s.08-.06.13-.1l.15.26Zm1.4,1.25c0-.08,0-.23,0-.35l.44.09Z"/><path class="cls-1" d="M28.15,154.95c.25,0,.37-.13.37-.4V148a2.12,2.12,0,0,0-1.12-2h-.18q-1.45,0-6.77.37-1.41,0-9-.57Q.2,146.11.2,146.86,0,152.7,0,154.55a3.11,3.11,0,0,0,.37,1.52,13.22,13.22,0,0,1,1-1h0s0-.11.07-.12l.06,0a9.1,9.1,0,0,1,6.18-2.46H9q.39.09.75.95.1,7.16.2,11.69c.17.11.31.35.55.82A1.44,1.44,0,0,1,10,166c.05,2.35.1,4.11.15,5.26s-.87,2.9-2.61,5.63l.18.37q4.68-.37,6.77-.37h.37a29.65,29.65,0,0,1,4.5.37,3.77,3.77,0,0,0,1.5-.95,4.11,4.11,0,0,0-1.08-1.81l.14.49-.32.06-.05-.58.15,0c-.25-.06-.47-.75-.66-2.11l-.92-.82-.06,0h0l-.07-.07H16.81l-.09-1.62.34,0,.06,1.4a.4.4,0,0,1,.49-.09,1.58,1.58,0,0,1,.36.31h.08l0,0a3.35,3.35,0,0,1,.78-.37c-.19-1.83-.35-4.41-.48-7.76l.75-10.9q0-.37,3.19-.75l1.32.2q2.66,3,4,3ZM9.62,174.16h0c-.09,0-.24-.08-.26-.15s.07-.18.12-.27.23.08.26.15S9.66,174.07,9.62,174.16ZM14,148.37a.74.74,0,0,1,.3,0,6,6,0,0,1,.09.64l-.43,0A6.28,6.28,0,0,1,14,148.37ZM10.54,167.2l-.18-.08s.05-.09.09-.1.08,0,.11,0Zm0-9.47-.2-1,.21-.07a1.55,1.55,0,0,1,.15.39A3.1,3.1,0,0,1,10.57,157.74Zm.8,18.77,0,0h0Zm0,0h0l.11-.21Zm1.31-24.68.07.06-.09,0Zm.62,13.95-.59-1.15.3-.18.71,1.06Zm.8,1.19h-.2c0-.22.09-.44.13-.66v-.1l0,0c.37,0,.57,0,.71,0a.56.56,0,0,1,.15.18l0,0c.06.11.12.25.21.44l-1.09-.7h0l0,.08Zm.36,8.75.06-.06,0,.08Zm.79.78h0Zm.12-8.5a1.23,1.23,0,0,1-.63-.08s0-.41.06-.45a2.28,2.28,0,0,1,.71-.07C15.45,167.7,15.44,168,15.38,168Zm9.16-17.66.1-.08,0,.13Zm.64,2,0,.14h0l0,0,.07-.08.29-.8.23.14Zm2-6s-.07,0-.11,0V146l.12,0A2.06,2.06,0,0,1,27.16,146.27Z"/><path class="cls-1" d="M53.23,172.74v.2a14.81,14.81,0,0,1-1.34,3.28c.2.38.39.57.57.57H62.78c1.41-.16,2.11-.61,2.11-1.34q0-.46-1.91-1.93Q54.39,154.79,54.19,150v-.79a14.51,14.51,0,0,1,1.91-2.31v-.37q-4.46-.59-15.49-.79a.18.18,0,0,1-.2.2,3.28,3.28,0,0,0,2.11,2.9q-2.67,9.63-7.22,23.37l0,0,0,0,0,.11q-3.82,3.34-3.82,4.42l.2.4,1.91-.2h1.91q5.52,0,6.68-.77a6,6,0,0,1-1.14-2.9v-.37a2.22,2.22,0,0,1,.79-1.71l-.07,0,.08-.06v.08c1-.91,3-1.37,6.07-1.37h2.68Q53.23,169.85,53.23,172.74Zm4.39-9.19,0-.14h0c0-.15,0,0,0,.15l.08,0-.09,0h0l0,0ZM57,161.17l.11,0-.08.2-.11,0A1.94,1.94,0,0,1,57,161.17Zm-.54,3.8a10.83,10.83,0,0,1-.22-1.53,4.48,4.48,0,0,1,1.19,2.46l0,0,0,0a1.75,1.75,0,0,1,.6.05c.08,0,.07.31-.12.59l-.48-.64h-.07a3,3,0,0,0-.37.48,5.24,5.24,0,0,0-.42,3.06c0,.45,0,.91,0,1.37a4.52,4.52,0,0,1-.27-4.47A2.85,2.85,0,0,0,56.45,165Zm-1.51-6.43-.29-1.48C55.16,157.71,55.16,157.71,54.94,158.54ZM55,147.36l0,.13-.09-.1ZM53.2,169.44c.12,0,.3,0,.34.12s0,.24-.11.45a1.69,1.69,0,0,1-.31-.34C53.09,169.62,53.18,169.43,53.2,169.44Zm-14.5-6.69.05-.07,0,.08Zm1,4.13-.06-.09.09-.06s.06.06.05.09S39.72,166.85,39.69,166.87Zm-.09-5.15c-.08.05-.3,0-.39-.1-.35-.33-.23-.74.41-1.46.14.11.2.13.22.16C40.07,160.85,40.16,161.36,39.6,161.73Zm.92-2.42-.31-.15.61-1.43C41.16,158.56,41,159,40.52,159.3Zm11.24,5.62-.86-1.3C51.63,163.74,52,164.08,51.76,164.92ZM51.65,159h.23a1.53,1.53,0,0,1,0,.55c0,.14-.23.24-.35.36l-.19-.11Zm-.83,2.91a.92.92,0,0,1,.35.08c-.05.11-.08.26-.17.31s-.23,0-.71-.07C50.6,162.08,50.7,162,50.82,161.95Zm-7.64-.74c-.42-.72-.55-1.32.7-1.26Zm1.43-2.39.21-1c.58.52.37.82.11,1.11Zm1.35,8.85c0-.06-.13-.13-.12-.19a.21.21,0,0,1,.06-.1l.09-.1h0c0,.06.14.13.13.19S46,167.6,45.95,167.67ZM45,163.3l1.71-4.81h.2c.51.87.91,1.63,1.23,2.33l.54.16-.14.34-.21-.08a7.28,7.28,0,0,1,.67,2.26l0,.07h.31c-.44.39-.74.59-1,.59a1.9,1.9,0,0,1-.6.1H46.54A1.46,1.46,0,0,1,45,163.3ZM47.56,169l-.35-.16.46-1.06.41.24Zm1.41-.45-.24-.08.33-1,.27.09Zm.18-12.18s-.1-.11-.15-.17l.15-.23.21.24C49.29,156.27,49.22,156.36,49.15,156.37Zm1.51,10.46L51,167,50,169.19A2.46,2.46,0,0,1,50.66,166.83Z"/><path class="cls-1" d="M86,175.6a1.16,1.16,0,0,1,1,.15,1.11,1.11,0,0,1,0,1c1.61-.14,3.48-.26,5.63-.37a7,7,0,0,1,2.4.92q.92,0,1.27-5.34v-5a1.45,1.45,0,0,0-1.1-1.47q-.55,0-1.47,2.4Q89,172.13,85,172.13h-.55c-3.75-.76-6-2.71-6.71-5.81a4.92,4.92,0,0,1-.47.26,1.84,1.84,0,0,1,.31-1,11.3,11.3,0,0,1-.14-1.78v-1.47a13.76,13.76,0,0,1,.2-2q1.29-4.8,3.57-7c-.12-.28.11-.6.73-1.28l0,.69a6.24,6.24,0,0,1,3.84-1.26,8.76,8.76,0,0,1,3,.57,3,3,0,0,0-.74-1.15c.93-.25,1.39.11,1.59.8.08.26.15.53.22.8A20.09,20.09,0,0,1,95,156.31q.81,0,1.1-4.06a15.33,15.33,0,0,0-1.47-6.61,10.47,10.47,0,0,1-3.12,1.1h-.55a46.23,46.23,0,0,0-7.36-1.1h-.2a15.9,15.9,0,0,0-5,.73q-9.56,3.56-9.56,14.37v1.65q0,4.83,4,10.66A20.81,20.81,0,0,0,79,176.67c0-.28.17-.5.56-.71a1,1,0,0,1-.08.85,9.71,9.71,0,0,0,2.82.46c.6-.11,1.34-.21,2.17-.3A2.9,2.9,0,0,1,86,175.6Zm9.47-26.51h.13s0,.1,0,.12-.08,0-.12,0Zm-4-1.4-.06.21-.07-.15Zm-6.15-1.81.22.13h0l-.06.25c-.07,0-.18-.07-.21-.13S85.2,146,85.22,145.88ZM83,151.06l0-.12.2.08a.94.94,0,0,1,0,.11l-.2-.08Zm-3.33-.75.09-.24.29.13c-.05.07-.09.18-.16.2s-.15-.05-.22-.08h0Zm-.49,4.38v.11l-.09-.06ZM78.08,154l.31.08-.07.26h0c-.08,0-.2,0-.23-.07S78.08,154.07,78.08,154Zm-8.22,6.43c-.06-.06-.16-.12-.17-.19s.08-.14.13-.2.15.12.16.19S69.9,160.34,69.86,160.41ZM71,153c.46.48-.11.93,0,1.33a6,6,0,0,0,.65,1.18l-.51.64C70.15,154.83,70.14,154.32,71,153Zm.82,17.15h0c-.11,0-.27.06-.32,0s0-.21,0-.32.26-.05.32,0a.19.19,0,0,1,0,.14C71.81,170.08,71.81,170.15,71.81,170.2Zm-.07-10.36a2.19,2.19,0,0,1-.1-.23l.12-.06h0a1.93,1.93,0,0,1,.1.23S71.78,159.82,71.74,159.85Zm4.58-11.32s0,0,.06.07-.06.06-.08.05,0,0-.06-.07S76.29,148.53,76.32,148.53Zm-2.68,17.09,0-.1.08.06Zm.72-1.55a.92.92,0,0,1-.21,0h0l.12-.24a.92.92,0,0,1,.15.16S74.38,164.07,74.36,164.07Zm-1-10.55,0-.48,1.91,0v.39Zm3,1.55-.11,0,0-.11s.09,0,.1,0S76.36,155,76.35,155.08Zm.31-2.9-2.43-.29,0-.35,2.43.28Zm.85,19.09-.15,0,0-.15h0c.05,0,.12,0,.15,0S77.52,171.21,77.51,171.26Z"/><path class="cls-1" d="M131.92,160.55q-2.62-14.92-12.59-14.92h-2.15a15.15,15.15,0,0,0-10.79,4.13q-5,5.78-5,10.62v1.07a19.09,19.09,0,0,0,3.6,11.32,15.54,15.54,0,0,0,4.39,3.21c0-.25.1-.52.14-.83a4.2,4.2,0,0,1,.57,1.15,13,13,0,0,0,5,1h2.33a16.17,16.17,0,0,0,2.35-.18q12.22-3.12,12.22-13.49Zm-28.61,8.69-.35-.12.19-.62.23,0Zm11.27-23.38c.08.05.23.11.23.16s-.09.19-.14.29h0c-.08-.05-.23-.11-.24-.16S114.53,146,114.58,145.87Zm-5.78,14.8a2.71,2.71,0,0,1,.57.11c.06,0,0,.22.1.64Zm1,14h0l-.35-.09.14-.42c.11.06.26.09.31.18S109.86,174.58,109.83,174.69Zm2.81-3.17-.23-.44.93-.45.18.31ZM123.28,162q-1.6,9.51-6.11,9.52h-1.8q-5.21-1.61-5.21-9.16a16.8,16.8,0,0,1,1.25-5.93q1.71-4.31,5.76-4.31h.18q6.11,1.69,6.11,7.91A14.7,14.7,0,0,0,123.28,162Zm2.86-10.63h0l0,.11-.05-.11h0l0-.08c.08-.2.15-.4.22-.59h0l-.23.59,0,.07Zm.26-.67h0Zm2.12,19.13.13-1H129l0,1Zm.51-14.89a3,3,0,0,1-.48-.11,1.39,1.39,0,0,1,.25-.43c.06-.06.26,0,.39.06A3.41,3.41,0,0,1,129,154.94Zm1,9.76c-1-.93-.37-1.59-.05-2.29l.59.15Zm.74,3.2s-.11,0-.18,0v-.65l.3,0C130.82,167.5,130.78,167.7,130.72,167.9Z"/><path class="cls-1" d="M160.84,168.11a20,20,0,0,0-.9-4.66q-1-2.66-8.24-5.56-7.18-1.41-7.19-3.78v-.7a1.8,1.8,0,0,1,.31-1c-.43-.47-.94-.92-1-1.55a1.32,1.32,0,0,1,.06-.41,2,2,0,0,1,.21-.46,7.84,7.84,0,0,1,.84.5.93.93,0,0,1,.37,1.12c0,.1-.05.22-.08.33a5.39,5.39,0,0,1,2.83-.84h1.08A14.5,14.5,0,0,1,154,152q3.21,3.41,3.58,3.43.64,0,1.08-1.08-.44-8.26-.9-8.26a17.73,17.73,0,0,1-2.51.35h-1.8q-4.75-.7-5.74-.7h-1.43a11.17,11.17,0,0,0-5.93,2q-3.58,4.46-3.58,6.83a8.6,8.6,0,0,0,1.08,4.48q0,3.84,10.94,5.74,3.36,0,4.48,4.48v.37q0,1.78-4,2.68-3,0-9.32-4.13-1.85-2.86-2.88-2.86H137a1.73,1.73,0,0,0-.9,1.78v1.08a29.67,29.67,0,0,0,1.25,8.61,20.35,20.35,0,0,0,3.6-.88,108.72,108.72,0,0,0,10.94,1.43H152q8.79-3.89,8.79-8.09Zm-15.5-19.37c.07,0,.19.08.29.13l-.15.29h0l-.29-.14C145.24,148.92,145.27,148.77,145.34,148.74Zm-3.83,11.76c-.16-.06-.33-.09-.34-.15a2.24,2.24,0,0,1,0-.51c.1,0,.28.06.3.12A2.25,2.25,0,0,1,141.51,160.51Zm2-12-.11-.12.15,0Zm4.58,11.19h0c-.08-.07-.21-.13-.23-.21s.07-.18.12-.27c.08.07.21.13.23.21S148.16,159.61,148.12,159.7ZM150.78,174a2,2,0,0,1-.14-.26s.08-.06.13-.1l.15.26Zm1.4,1.25c0-.08,0-.23,0-.35l.44.09Zm2.75-2.1-.14-.19.18,0Z"/><polygon class="cls-1" points="8.62 185.88 8.53 185.98 8.53 188.74 8.47 188.8 6.76 188.8 6.71 188.74 6.71 185.98 6.61 185.88 6.3 185.88 6.21 185.98 6.21 192.27 6.3 192.37 6.61 192.37 6.71 192.27 6.71 189.32 6.76 189.27 8.47 189.27 8.53 189.32 8.53 192.27 8.62 192.37 8.93 192.37 9.02 192.27 9.02 185.98 8.93 185.88 8.62 185.88"/><path class="cls-1" d="M14.79,185.84a1.75,1.75,0,0,0-.28,0,1.25,1.25,0,0,0-1.31.89,23.94,23.94,0,0,0,0,4.86,1.25,1.25,0,0,0,1.31.89,1.25,1.25,0,0,0,1.31-.89,23.94,23.94,0,0,0,0-4.86,1.19,1.19,0,0,0-.81-.81l-.21.17C14.78,186,14.79,185.91,14.79,185.84Zm.55,1a5.15,5.15,0,0,1,.1,1.44l.39.27c-.08.1-.14.26-.24.28a.24.24,0,0,1-.15,0c0,.11,0,.21,0,.34a8.72,8.72,0,0,1-.1,2.28.8.8,0,0,1-.83.57.81.81,0,0,1-.83-.57,27.45,27.45,0,0,1,0-4.56.8.8,0,0,1,.83-.57A.79.79,0,0,1,15.34,186.85Z"/><path class="cls-1" d="M20.46,187.29h0l1.14,3.82.1.1h.19l.1-.1,1.15-3.82h0v5l.1.09h.28l.09-.09V186l-.09-.09h-.32l-.12.09-1.28,4.35h0L20.54,186l-.12-.09h-.32L20,186v6.29l.1.09h.28l.09-.09Zm2.23.88.07,0,0,0a2.09,2.09,0,0,1-.13.21l-.11-.09Z"/><path class="cls-1" d="M30.23,192l-.1-.1H28.39l-.06-.06v-2.47l.06-.06h1.53l.09-.1v0h0l0-.1h0v-.15l-.09-.1H28.39l-.06-.06v-2.38l.06-.06h1.74l.1-.09V186l-.1-.09h-.38l-.9.28-.16-.28h-.76l-.09.09v6.29l.09.09h.43l.36-.24.16.24h1.24l.1-.09Z"/><path class="cls-1" d="M37.31,185.88l-.12.09-1.28,4.35h0L34.59,186l-.12-.09h-.32L34,186v.84l.14.24a.91.91,0,0,1-.09.81l-.05.08v4.32l.09.09h.28l.1-.09v-5h0l1.15,3.82.1.1H36l.1-.1,1.14-3.82h0v5l.09.09h.28l.1-.09V186l-.1-.09Z"/><path class="cls-1" d="M41.82,190.72l-.34,1.56.1.09h.3l.1-.09.32-1.55h1.58l.32,1.55.1.09h.31l.09-.09L43.37,186l-.1-.09h-.31l-.1.09-.94,4.32.23.41Zm.9-2h0l.36-1.73h0l.68,3.31H42.39l.33-1.55S42.72,188.7,42.72,188.69Z"/><path class="cls-1" d="M51.12,191.4a17.08,17.08,0,0,0,0-4.56,1.31,1.31,0,0,0-1.41-1H48.55l-.1.09v6.29l.1.09h1.16A1.31,1.31,0,0,0,51.12,191.4Zm-2.12.5-.06-.06v-5.44l.06-.06h.65a.91.91,0,0,1,1,.66,16.82,16.82,0,0,1,0,4.23.91.91,0,0,1-1,.66Z"/><polygon class="cls-1" points="55.89 186.35 57.64 186.35 57.73 186.26 57.73 185.98 57.64 185.88 55.44 185.88 55.34 185.98 55.34 192.27 55.44 192.37 57.64 192.37 57.73 192.27 57.73 192 57.64 191.9 55.89 191.9 55.84 191.84 55.84 189.37 55.89 189.32 57.42 189.32 57.51 189.22 57.51 188.94 57.42 188.85 55.89 188.85 55.84 188.79 55.84 186.41 55.89 186.35"/><polygon class="cls-1" points="67.91 191.21 68.1 191.21 68.21 191.12 69.35 187.29 69.38 187.29 69.38 192.27 69.48 192.37 69.75 192.37 69.85 192.27 69.85 185.98 69.75 185.88 69.43 185.88 69.3 185.98 68.03 190.33 68.01 190.33 66.71 185.98 66.59 185.88 66.26 185.88 66.17 185.98 66.17 192.27 66.26 192.37 66.54 192.37 66.63 192.27 66.63 187.29 66.66 187.29 67.81 191.12 67.91 191.21"/><path class="cls-1" d="M74,186v6.29l.09.09h2.2l.09-.09V192l-.09-.1H74.56l-.06-.06v-2.47l.06-.06h1.53l.1-.1v-.28l-.1-.1H74.56l-.06-.06v-2.38l.06-.06h1.75l.09-.09V186l-.09-.09H75.24l-.22.22v-.22H74.1Z"/><polygon class="cls-1" points="79.92 192.37 80.27 192.37 80.37 192.28 81.37 189.65 81.38 189.65 82.39 192.28 82.5 192.37 82.83 192.37 82.9 192.27 81.63 188.99 82.79 185.98 82.74 185.88 82.39 185.88 82.29 185.97 81.38 188.36 81.37 188.36 80.47 185.97 80.36 185.88 80.03 185.88 79.96 185.98 81.13 188.99 79.87 192.27 79.92 192.37"/><polygon class="cls-1" points="86.8 185.88 86.71 185.98 86.71 192.27 86.8 192.37 87.11 192.37 87.2 192.27 87.2 185.98 87.11 185.88 86.8 185.88"/><path class="cls-1" d="M94,191.12l-.06-.11-.29-.06-.1.07c-.08.62-.35,1-.87,1a.77.77,0,0,1-.8-.57,27.13,27.13,0,0,1,0-4.56.76.76,0,0,1,.8-.57c.52,0,.79.34.87,1l.1.08.29-.06.06-.12a1.28,1.28,0,0,0-1.33-1.32,1.21,1.21,0,0,0-1.27.89,23.73,23.73,0,0,0,0,4.86,1.21,1.21,0,0,0,1.27.89A1.29,1.29,0,0,0,94,191.12Z"/><path class="cls-1" d="M100.09,192.27l.1.09h.3l.09-.09L99.25,186l-.1-.09h-.31l-.11.09-1.36,6.29.1.09h.3l.09-.09.33-1.55h1.58Zm-.83-5.08,0,.12h0l-.06,0-.06,0s-.05-.09,0-.12S99.22,187.21,99.26,187.2Zm-1,3.07L99,187h0l.68,3.31Z"/><path class="cls-1" d="M106.76,191.29,105,186l-.15-.09h-.38l-.09.09v6.29l.09.09h.27l.09-.09V187h0l1.81,5.31.15.09h.36l.1-.09V186l-.1-.09h-.27l-.09.09v.25l.11.41-.11-.06v4.71Z"/><path class="cls-1" d="M118.58,191l-.29-.06-.1.07c-.08.62-.35,1-.87,1a.76.76,0,0,1-.8-.57,27.13,27.13,0,0,1,0-4.56.76.76,0,0,1,.8-.57c.52,0,.79.34.87,1l.1.08.29-.06.06-.12a1.29,1.29,0,0,0-1.33-1.32,1.21,1.21,0,0,0-1.27.89,23.73,23.73,0,0,0,0,4.86,1.21,1.21,0,0,0,1.27.89,1.29,1.29,0,0,0,1.33-1.33Z"/><path class="cls-1" d="M124.85,185.88l-.1.09v4.9c0,.75-.37,1.1-.91,1.1s-.91-.34-.91-1.1V186l-.09-.09h-.31l-.1.09v4.86c0,1.08.56,1.6,1.4,1.6s1.4-.53,1.4-1.6V186l-.1-.09Z"/><polygon class="cls-1" points="129.89 192.27 129.89 185.98 129.8 185.88 129.49 185.88 129.4 185.98 129.4 192.27 129.49 192.37 129.8 192.37 129.89 192.27"/><path class="cls-1" d="M135.49,188.8l-.39-.15c-.53-.21-.72-.5-.72-1.25s.26-1.13.84-1.13.83.35.86,1.12l.1.08.28,0,.07-.1c0-1-.46-1.5-1.32-1.5s-1.32.53-1.32,1.61.24,1.4,1.1,1.74l.39.15c.52.2.71.51.71,1.33,0,1.07-.3,1.34-.88,1.34s-.88-.32-.94-1.26l-.1-.08-.29.06-.07.1c0,1.1.5,1.63,1.39,1.63s1.37-.53,1.37-1.86C136.58,189.53,136.3,189.13,135.49,188.8Z"/><polygon class="cls-1" points="140.61 185.88 140.51 185.98 140.51 192.27 140.61 192.37 140.91 192.37 141.01 192.27 141.01 185.98 140.91 185.88 140.61 185.88"/><polygon class="cls-1" points="147.71 185.88 147.62 185.98 147.62 191.29 147.59 191.29 145.79 185.98 145.64 185.88 145.26 185.88 145.17 185.98 145.17 192.27 145.26 192.37 145.53 192.37 145.62 192.27 145.62 186.96 145.65 186.96 147.46 192.27 147.62 192.37 147.98 192.37 148.07 192.27 148.07 185.98 147.98 185.88 147.71 185.88"/><polygon class="cls-1" points="154.63 192.27 154.63 192 154.53 191.9 152.79 191.9 152.73 191.84 152.73 189.37 152.79 189.32 154.31 189.32 154.41 189.22 154.41 188.94 154.31 188.85 152.79 188.85 152.73 188.79 152.73 186.41 152.79 186.35 154.53 186.35 154.63 186.26 154.63 185.98 154.53 185.88 152.33 185.88 152.23 185.98 152.23 192.27 152.33 192.37 154.53 192.37 154.63 192.27"/><path class="cls-1" d="M53,57.32h0a7.45,7.45,0,0,1,.11-1.07,7.36,7.36,0,0,1,.37-1.36,4.76,4.76,0,0,1,.47-.93,2.73,2.73,0,0,1,.94-.91,3.63,3.63,0,0,1,1.83-.4,4.43,4.43,0,0,1,1.29.17,2.45,2.45,0,0,1,1.17.74,3.76,3.76,0,0,1,.6,1,7.48,7.48,0,0,1,.59,2.73h0a3.37,3.37,0,0,0,6.73.1v-.1a13.37,13.37,0,0,0-.17-2,13.88,13.88,0,0,0-.67-2.62,11.43,11.43,0,0,0-1.11-2.27,9.4,9.4,0,0,0-3.25-3.12,10.33,10.33,0,0,0-5.18-1.29,11.08,11.08,0,0,0-3.32.48,9.28,9.28,0,0,0-4.26,2.78,10.7,10.7,0,0,0-1.71,2.71,13.88,13.88,0,0,0-1,3.56,13.2,13.2,0,0,0-.15,1.88v.06A3.37,3.37,0,0,0,53,57.32ZM64.31,56l.34.08h0l.06.32c-.11,0-.31.05-.33,0a.71.71,0,0,1,0-.21c0-.07,0-.15,0-.22Zm-15.81.82,0-.1.08.09Zm2.59-8.19h0Z"/><path class="cls-1" d="M93.7,57.38a3.37,3.37,0,0,0,6.73-.06h0a7.18,7.18,0,0,1,.11-1.07,7.37,7.37,0,0,1,.37-1.37,4.76,4.76,0,0,1,.47-.93,2.72,2.72,0,0,1,.94-.91,3.62,3.62,0,0,1,1.83-.4,4.41,4.41,0,0,1,1.29.17,2.45,2.45,0,0,1,1.17.74,3.75,3.75,0,0,1,.6,1,6.87,6.87,0,0,1,.5,1.77,7.12,7.12,0,0,1,.09,1h0a3.37,3.37,0,0,0,6.73.1v-.1a13.52,13.52,0,0,0-.17-2,13.88,13.88,0,0,0-.67-2.62,11.42,11.42,0,0,0-1.11-2.27,9.41,9.41,0,0,0-3.25-3.12,10.34,10.34,0,0,0-5.18-1.29,11.13,11.13,0,0,0-3.12.44l.19.28a1.5,1.5,0,0,1-.74-.1,9.31,9.31,0,0,0-3.91,2.64,10.71,10.71,0,0,0-1.71,2.71,13.88,13.88,0,0,0-1,3.56,13.36,13.36,0,0,0-.15,1.88Zm11.61-10-.06.07,0-.07Zm-6.74,4.68s.2,0,.3,0l.08.35h0l-.42,0C98.55,52.28,98.52,52.14,98.58,52.06Z"/><path class="cls-1" d="M104.42,78.77l0,.5A35.09,35.09,0,0,0,108.56,72a1.56,1.56,0,0,0,0-1.1v-.05l-.06-.11a1.6,1.6,0,0,0-.68-.74h0a1.55,1.55,0,0,0-.33-.13l-.19,0-.22,0-1,.59-.56.37v0l-.29.13h0c-2.83,1.68-9.92,4.63-24.9,4.63-16.75,0-23.51-3.67-25.53-5.13l-1-.48A1.59,1.59,0,0,0,52.23,71a1.55,1.55,0,0,0,0,1.07,33.16,33.16,0,0,0,1.44,3.06c.23.44.5.89.77,1.36l.21.35c.28.45.57.92.89,1.39l.05.08c.34.49.71,1,1.09,1.5l.27.35c.37.46.75.93,1.17,1.39l.13.15c.45.5.94,1,1.45,1.49l.33.31q.7.65,1.46,1.28l.23.2c.58.46,1.19.91,1.83,1.34l.4.26q.85.55,1.77,1.05l.26.15.14.07c.36.19.73.36,1.1.54l.64.3c.39.17.8.33,1.21.48l.66.26c.45.16.91.3,1.38.43l.61.19c.68.19,1.39.35,2.12.5a32.44,32.44,0,0,0,4.7.56q.83,0,1.69,0c.8,0,1.58,0,2.34-.09s1.73-.14,2.55-.26l.13,0c.46-.07.92-.15,1.37-.23l.35-.08a28.77,28.77,0,0,0,5.1-1.55h0q.62-.26,1.21-.53l.55-.27.34-.17.28-.14.55-.31.56-.32.27-.17.79-.49.14-.1.87-.59.4-.3.56-.42.41-.33.5-.41.47-.42.39-.34.39-.38.42-.4q.74-.74,1.41-1.49c.41-.46.79-.92,1.15-1.38l0-1.2Zm-34-1h-.14a.19.19,0,0,1-.12,0s0-.05,0-.1,0-.09,0-.13h.14a.19.19,0,0,1,.12,0s0,.15,0,.23Zm.4,7.74c1.35-.31,1.5-.17,1.63,1.78Zm1.7,3.91-.26.12a1.28,1.28,0,0,1-.07-.14l.26-.12,0,.07,0,.08Zm0-7.14-.1-.1.14,0Zm1.36-.19-.18-.3h0c.09-.06.2-.18.28-.16s.18.15.27.23Zm1-2.79a.09.09,0,0,1-.06,0s-.05-.08-.08-.13l.14-.07,0,0,0,.09Zm1.08,8c0-.12-.08-.25,0-.34s.18-.09.28-.13h0l.15.31Zm5-2.05s-.08,0-.12,0,0-.1,0-.13.08,0,.12,0S81,85.17,81,85.19Zm3.58,3.18-.07-.14h.15Zm.11-12.7,0,0h0Zm5.23.26c.89-.05,1.32.31,1.68,1.24A1.36,1.36,0,0,1,89.94,75.93Zm4.32,11.3.28-.14Zm.83-.45.56-.32Zm.84-.48.79-.49Zm.94-.59.87-.59Zm1.27-.89.56-.42Zm1-.75.5-.41Zm1-.83.39-.34Zm2.47-10.4a1.64,1.64,0,0,1-.27-.18s0-.12,0-.18.27,0,.28,0A1.15,1.15,0,0,1,102.55,72.84Z"/></g></g></svg>