<svg xmlns="http://www.w3.org/2000/svg" viewBox="0 0 187.09 29.66"><defs><style>.cls-1,.cls-2{fill:#fff;}.cls-1{fill-rule:evenodd;}</style></defs><title>Asset 1</title><g id="Layer_2" data-name="Layer 2"><g id="Layer_1-2" data-name="Layer 1"><path class="cls-1" d="M.92,1.26H180.77c.32,0,.63,0,.63-.63s-.32-.63-.63-.63H.92C.6,0,.29,0,.29.63S.6,1.26.92,1.26Z"/><path class="cls-1" d="M180.77,20.6H.92c-.32,0-.63,0-.63.63s.32.63.63.63H180.77c.32,0,.63,0,.63-.63S181.08,20.6,180.77,20.6Z"/><path class="cls-1" d="M10.42,10.57H5.86a.68.68,0,0,0-.68.68v.68a.68.68,0,0,0,.68.68H11.4c2,0,3.15-.51,3.78-1.35a5.27,5.27,0,0,0,.72-3.21h0A5.11,5.11,0,0,0,15.16,5c-.63-.84-1.75-1.35-3.78-1.35H2.89a.68.68,0,0,0-.65.68V17.79a.68.68,0,0,0,.2.48h0a.68.68,0,0,0,.48.2h1a.68.68,0,0,0,.48-.2h0a.68.68,0,0,0,.2-.48V5.68h5.83a4.57,4.57,0,0,1,2.52.41c.43.32.59.94.61,2h0V8.2h0c0,1.06-.19,1.66-.61,2A4.58,4.58,0,0,1,10.42,10.57Z"/><path class="cls-1" d="M112.84,18.25H116a12.34,12.34,0,0,0,4.77-.61,3.17,3.17,0,0,0,1.86-3.28v-.94h0a.68.68,0,0,0-.68-.68h-1a.68.68,0,0,0-.68.68h0v.75c0,.86-.23,1.36-.82,1.63a9.52,9.52,0,0,1-3.56.4h-2.66c-1.75,0-2.65-.31-3.1-1s-.5-1.79-.5-3.33V8.06a2,2,0,0,1,1.2-2.14,13.85,13.85,0,0,1,4.75-.49h1.27a4.21,4.21,0,0,1,2.62.53,2.23,2.23,0,0,1,.54,1.8v.07a.68.68,0,0,0,.68.68h1a.68.68,0,0,0,.68-.68V7.74a4.24,4.24,0,0,0-1-3.28c-.76-.72-2-1.07-4.21-1.07h-1.85a14.82,14.82,0,0,0-5.79.75c-1.45.66-2.24,1.85-2.24,4v5.41a4.39,4.39,0,0,0,1.42,3.55A6.21,6.21,0,0,0,112.84,18.25Z"/><path class="cls-1" d="M35.69,4.17h0A.68.68,0,0,0,35,3.48H34a.68.68,0,0,0-.68.67V13.9c0,2.14.82,3.23,2.23,3.8a15.66,15.66,0,0,0,5.39.56,16.12,16.12,0,0,0,5.67-.63c1.44-.59,2.25-1.69,2.25-3.72V4.26a.68.68,0,0,0-.2-.48h0a.68.68,0,0,0-.48-.2h-1a.68.68,0,0,0-.48.2h0a.68.68,0,0,0-.2.48h0V13.9a1.79,1.79,0,0,1-1.24,2,15.83,15.83,0,0,1-4.34.32c-2.37,0-3.73-.08-4.47-.43s-.8-.87-.8-1.88V4.17Z"/><path class="cls-1" d="M107.35,4.25a.68.68,0,0,0-.68-.68h-4.2a.68.68,0,0,0-.66.68v.67a.68.68,0,0,0,.66.68h4.19a.67.67,0,0,0,.48-.2h0a.68.68,0,0,0,.2-.48Z"/><path class="cls-1" d="M100.93,4.38V4.25a.68.68,0,0,0-.68-.68h-7.9a.68.68,0,0,0-.48.2h0a.68.68,0,0,0-.2.48v.69a.68.68,0,0,0,.68.68h6.22V6h0V17.53a.68.68,0,0,0,.68.67h1a.68.68,0,0,0,.68-.68h0V4.38Z"/><path class="cls-1" d="M30.5,18.32h1a.68.68,0,0,0,.68-.68V7.85c0-2-.74-3.12-2.11-3.72a15.15,15.15,0,0,0-5.55-.64,15.66,15.66,0,0,0-5.39.56c-1.41.56-2.22,1.66-2.22,3.8v9.61l0,.12a.68.68,0,0,0,.2.47h0a.68.68,0,0,0,.48.2h1a.68.68,0,0,0,.48-.2h0a.67.67,0,0,0,.2-.48h0V12.23l0-.16V12H28l.2,0,0-.06a.67.67,0,0,0,.48-.65h0v-.64h0a.66.66,0,0,0-.2-.48h0a.68.68,0,0,0-.48-.2H19.24v0l0-.21V7.85c0-1,.16-1.58.8-1.88s2.1-.43,4.47-.43a14.62,14.62,0,0,1,4.21.32c.77.28,1.11.85,1.11,2v9.6l0,.22v0a.68.68,0,0,0,.2.48h0A.68.68,0,0,0,30.5,18.32Z"/><path class="cls-1" d="M87.11,17.5V4.3h0a.68.68,0,0,0-.68-.67h-2.2a.68.68,0,0,0-.57.31h0l-.11.17v0l-6.2,11.13L71.18,4.18h0l-.13-.24,0,0a.68.68,0,0,0-.56-.29H68.31a.68.68,0,0,0-.48.2h0a.68.68,0,0,0-.2.48V17.59h0a.68.68,0,0,0,.2.48h0a.68.68,0,0,0,.48.2h.89a.68.68,0,0,0,.48-.2h0a.68.68,0,0,0,.2-.47V6.29l6.4,11.5v0l.05.08a.68.68,0,0,0,.6.37h.85a.68.68,0,0,0,.37-.11.68.68,0,0,0,.23-.26l0-.06v0L84.85,6.29V17.59a.68.68,0,0,0,.2.48h0a.68.68,0,0,0,.48.2h.9a.68.68,0,0,0,.68-.67h0Z"/><path class="cls-1" d="M90.59,3.8h0a.68.68,0,0,0-.48-.2h-1a.67.67,0,0,0-.48.2h0a.68.68,0,0,0-.2.48h0v13.3a.68.68,0,0,0,.68.65h1a.68.68,0,0,0,.68-.68h0V4.27h0A.68.68,0,0,0,90.59,3.8Z"/><path class="cls-1" d="M167.85,17.56a.68.68,0,0,0,.68.68h11.06a.68.68,0,0,0,.68-.68v-.7a.68.68,0,0,0-.68-.68H170.2v0h0V4.27h0a.68.68,0,0,0-.2-.48h0a.68.68,0,0,0-.48-.2h-1a.68.68,0,0,0-.48.2h0a.68.68,0,0,0-.2.48V17.56Z"/><path class="cls-1" d="M154.56,17.56a.68.68,0,0,0,.68.68H166.3a.68.68,0,0,0,.68-.68v-.7a.68.68,0,0,0-.68-.68h-9.39v0h0V4.27h0a.68.68,0,0,0-.68-.68h-1a.68.68,0,0,0-.48.2h0a.68.68,0,0,0-.2.48V17.56Z"/><path class="cls-1" d="M138.76,17.53V4.33a.68.68,0,0,0-.68-.68h-1a.68.68,0,0,0-.68.68h0V9.77l0,0h-9.14a.67.67,0,0,0-.48.2h0a.68.68,0,0,0-.2.48h0v.67h0a.68.68,0,0,0,.68.68h9.15V17.6h0a.68.68,0,0,0,.68.68h1a.68.68,0,0,0,.68-.68h0Z"/><path class="cls-1" d="M125.69,17.51V4.32h0a.68.68,0,0,0-.2-.48.67.67,0,0,0-.48-.2h-1a.67.67,0,0,0-.48.2.68.68,0,0,0-.2.47h0v13.3a.68.68,0,0,0,.2.46.67.67,0,0,0,.48.2H125a.67.67,0,0,0,.48-.2.68.68,0,0,0,.2-.48v-.1Z"/><path class="cls-1" d="M50,17.56a.68.68,0,0,0,.68.68H61.78a.68.68,0,0,0,.68-.68v-.7a.68.68,0,0,0-.68-.68H52.39v0h0V4.25a.68.68,0,0,0-.2-.46h0a.68.68,0,0,0-.48-.2h-1a.67.67,0,0,0-.48.2h0a.68.68,0,0,0-.2.48V17.56Z"/><path class="cls-1" d="M143.3,10.4V11a.68.68,0,0,0,.67.68h8.13a.68.68,0,0,0,.68-.68v-.59a.68.68,0,0,0-.68-.68H144a.68.68,0,0,0-.48.2h0A.68.68,0,0,0,143.3,10.4Z"/><path class="cls-1" d="M153.31,4.94V4.25a.68.68,0,0,0-.67-.68h-12a.68.68,0,0,0-.48.2h0a.68.68,0,0,0-.2.48h0V17.52h0a.68.68,0,0,0,.2.48h0a.68.68,0,0,0,.48.2h1.2v-.32h0v.32h10.81a.68.68,0,0,0,.68-.68v-.69a.68.68,0,0,0-.68-.68H142.4l0,0V5.63h0v0h10.22V5.29h0v.32A.68.68,0,0,0,153.31,4.94Zm-.68-1h0Zm-12,0h0v0Zm-.36.36h0Zm12.36,13.63h0v0Z"/><path class="cls-1" d="M185.67,16.42c0-.54-.29-.86-1.15-.86H183.1v3.25h.4v-1.5h.73l.93,1.5h.48l-1-1.5C185.23,17.3,185.67,17.06,185.67,16.42Zm-1.57.58h-.61V15.85h.93c.4,0,.81.06.81.57C185.24,17.07,184.57,17,184.11,17Z"/><path class="cls-1" d="M184.19,14.28a2.91,2.91,0,1,0,2.9,2.9A2.91,2.91,0,0,0,184.19,14.28Zm0,5.43a2.44,2.44,0,0,1-2.46-2.53,2.45,2.45,0,1,1,4.9,0A2.43,2.43,0,0,1,184.19,19.71Z"/><path class="cls-1" d="M2.06,24.88H0v4.68H.82V27.76H2.06c1.34,0,1.59-.86,1.59-1.43S3.4,24.88,2.06,24.88Zm0,2.21H.82V25.54H2c.43,0,.81.16.81.77A.74.74,0,0,1,2,27.09Z"/><path class="cls-1" d="M10.09,27.33h0a1.13,1.13,0,0,0,.77-1.18c0-.79-.52-1.26-1.55-1.26H7.08v4.68H7.9V27.63H9.1c.75,0,.93.38.93,1.24a1.31,1.31,0,0,0,.12.69H11a2.13,2.13,0,0,1-.26-1.23C10.78,27.58,10.37,27.37,10.09,27.33ZM9.24,27H7.9V25.54H9.23c.43,0,.81.12.81.71S9.76,27,9.24,27Z"/><path class="cls-1" d="M16.39,24.77a2.26,2.26,0,0,0-2.24,2.45,2.25,2.25,0,1,0,4.48,0A2.26,2.26,0,0,0,16.39,24.77Zm0,4.23c-1,0-1.42-.88-1.42-1.78s.42-1.78,1.42-1.78,1.42.88,1.42,1.78S17.4,29,16.39,29Z"/><polygon class="cls-1" points="22.09 29.55 22.91 29.55 22.91 27.48 25.02 27.48 25.02 26.81 22.91 26.81 22.91 25.58 25.32 25.58 25.32 24.88 22.09 24.88 22.09 29.55"/><polygon class="cls-1" points="29.5 27.48 31.86 27.48 31.86 26.81 29.5 26.81 29.5 25.58 32.05 25.58 32.05 24.88 28.69 24.88 28.69 29.55 32.1 29.55 32.1 28.84 29.5 28.84 29.5 27.48"/><path class="cls-1" d="M38.14,27l-1.35-.36c-.33-.09-.56-.27-.56-.6s.48-.61.86-.61c.56,0,1,.22,1,.82h.82c0-1-.82-1.49-1.79-1.49s-1.71.44-1.71,1.38a1.19,1.19,0,0,0,1,1.19c.64.18,1.07.26,1.39.39a.56.56,0,0,1,.39.58c0,.35-.27.71-1,.71s-1.19-.28-1.19-1h-.82c0,1.16.88,1.67,2,1.67s1.86-.42,1.86-1.47A1.24,1.24,0,0,0,38.14,27Z"/><path class="cls-1" d="M45.1,27l-1.35-.36c-.33-.09-.56-.27-.56-.6s.48-.61.86-.61c.56,0,1,.22,1,.82h.82c0-1-.82-1.49-1.79-1.49s-1.71.44-1.71,1.38a1.19,1.19,0,0,0,1,1.19c.64.18,1.07.26,1.4.39a.56.56,0,0,1,.39.58c0,.35-.27.71-1,.71S43,28.71,43,28H42.2c0,1.16.88,1.67,2,1.67S46,29.24,46,28.2A1.24,1.24,0,0,0,45.1,27Z"/><rect class="cls-2" x="49.44" y="24.88" width="0.82" height="4.68"/><path class="cls-1" d="M56,24.77a2.26,2.26,0,0,0-2.24,2.45,2.25,2.25,0,1,0,4.48,0A2.26,2.26,0,0,0,56,24.77ZM56,29c-1,0-1.42-.88-1.42-1.78S55,25.43,56,25.43s1.42.88,1.42,1.78S57,29,56,29Z"/><polygon class="cls-1" points="64.64 28.32 64.62 28.32 62.49 24.88 61.62 24.88 61.62 29.55 62.4 29.55 62.4 26.11 62.42 26.11 64.55 29.55 65.42 29.55 65.42 24.88 64.64 24.88 64.64 28.32"/><path class="cls-1" d="M70.35,24.88l-1.79,4.68h.84l.44-1.24H71.7l.44,1.24H73l-1.8-4.68Zm-.29,2.82.71-2h0l.7,2Z"/><polygon class="cls-1" points="77 24.88 76.18 24.88 76.18 29.55 79.37 29.55 79.37 28.84 77 28.84 77 24.88"/><path class="cls-1" d="M89.35,27,88,26.64c-.33-.09-.56-.27-.56-.6s.48-.61.86-.61c.56,0,1,.22,1,.82h.82c0-1-.82-1.49-1.79-1.49s-1.71.44-1.71,1.38a1.19,1.19,0,0,0,1,1.19c.64.18,1.07.26,1.4.39a.56.56,0,0,1,.39.58c0,.35-.27.71-1,.71s-1.19-.28-1.19-1h-.82c0,1.16.88,1.67,2,1.67s1.86-.42,1.86-1.47A1.24,1.24,0,0,0,89.35,27Z"/><path class="cls-1" d="M94.94,24.88l-1.79,4.68H94l.44-1.24H96.3l.44,1.24h.88l-1.8-4.68Zm-.29,2.82.71-2h0l.7,2Z"/><polygon class="cls-1" points="101.59 24.88 100.77 24.88 100.77 29.55 103.97 29.55 103.97 28.84 101.59 28.84 101.59 24.88"/><path class="cls-1" d="M109.23,24.77A2.26,2.26,0,0,0,107,27.21a2.25,2.25,0,1,0,4.48,0A2.26,2.26,0,0,0,109.23,24.77Zm0,4.23c-1,0-1.42-.88-1.42-1.78s.42-1.78,1.42-1.78,1.42.88,1.42,1.78S110.23,29,109.23,29Z"/><polygon class="cls-1" points="117.91 28.32 117.9 28.32 115.76 24.88 114.9 24.88 114.9 29.55 115.68 29.55 115.68 26.11 115.7 26.11 117.82 29.55 118.69 29.55 118.69 24.88 117.91 24.88 117.91 28.32"/><path class="cls-1" d="M128.52,24.88h-2.06v4.68h.82V27.76h1.24c1.34,0,1.59-.86,1.59-1.43S129.85,24.88,128.52,24.88Zm0,2.21h-1.2V25.54h1.21c.43,0,.81.16.81.77A.74.74,0,0,1,128.47,27.09Z"/><path class="cls-1" d="M136.54,27.33h0a1.13,1.13,0,0,0,.77-1.18c0-.79-.52-1.26-1.54-1.26h-2.23v4.68h.82V27.63h1.2c.75,0,.93.38.93,1.24a1.3,1.3,0,0,0,.13.69h.88a2.12,2.12,0,0,1-.26-1.23C137.24,27.58,136.82,27.37,136.54,27.33ZM135.7,27h-1.34V25.54h1.33c.43,0,.81.12.81.71S136.21,27,135.7,27Z"/><path class="cls-1" d="M142.85,24.77a2.26,2.26,0,0,0-2.24,2.45,2.25,2.25,0,1,0,4.48,0A2.26,2.26,0,0,0,142.85,24.77Zm0,4.23c-1,0-1.42-.88-1.42-1.78s.42-1.78,1.42-1.78,1.42.88,1.42,1.78S143.85,29,142.85,29Z"/><path class="cls-1" d="M150.48,24.88h-1.94v4.68h1.94c1.44,0,2.06-1,2.06-2.34S151.93,24.88,150.48,24.88Zm-.31,4h-.81V25.54h.81c1.28,0,1.56.73,1.56,1.67S151.45,28.88,150.17,28.88Z"/><path class="cls-1" d="M159,27.6c0,.63,0,1.36-1.1,1.36s-1.1-.73-1.1-1.36V24.88h-.82v3a1.92,1.92,0,0,0,3.84,0v-3H159Z"/><path class="cls-1" d="M165.42,29c-1,0-1.42-.88-1.42-1.78s.42-1.78,1.42-1.78a1.12,1.12,0,0,1,1.17.93h.82a1.82,1.82,0,0,0-2-1.6,2.26,2.26,0,0,0-2.24,2.45,2.26,2.26,0,0,0,2.24,2.45,1.92,1.92,0,0,0,2-1.89h-.8A1.2,1.2,0,0,1,165.42,29Z"/><polygon class="cls-1" points="170.42 25.58 171.9 25.58 171.9 29.55 172.72 29.55 172.72 25.58 174.21 25.58 174.21 24.88 170.42 24.88 170.42 25.58"/><path class="cls-1" d="M180.08,27l-1.35-.36c-.33-.09-.56-.27-.56-.6s.48-.61.86-.61c.56,0,1,.22,1,.82h.82c0-1-.82-1.49-1.79-1.49s-1.71.44-1.71,1.38a1.19,1.19,0,0,0,1,1.19c.64.18,1.07.26,1.39.39a.56.56,0,0,1,.39.58c0,.35-.27.71-1,.71S178,28.71,178,28h-.82c0,1.16.88,1.67,2,1.67S181,29.24,181,28.2A1.24,1.24,0,0,0,180.08,27Z"/></g></g></svg>