<?xml version="1.0" standalone="no"?>
<!DOCTYPE svg PUBLIC "-//W3C//DTD SVG 20010904//EN"
 "http://www.w3.org/TR/2001/REC-SVG-20010904/DTD/svg10.dtd">
<svg version="1.0" xmlns="http://www.w3.org/2000/svg"
 width="467.000000pt" height="467.000000pt" viewBox="0 0 467.000000 467.000000"
 preserveAspectRatio="xMidYMid meet">
<metadata>
Created by potrace 1.11, written by Peter Selinger 2001-2013
</metadata>
<g transform="translate(0.000000,467.000000) scale(0.100000,-0.100000)"
fill="#000000" stroke="none">
<path d="M2065 4649 c-429 -52 -862 -235 -1202 -510 -184 -148 -396 -393 -520
-599 -152 -254 -254 -529 -304 -825 -26 -154 -36 -459 -20 -616 28 -272 105
-541 225 -786 489 -997 1591 -1507 2670 -1237 752 188 1373 757 1626 1489 95
277 124 452 124 760 1 297 -24 470 -104 719 -242 755 -859 1341 -1622 1540
-216 57 -298 68 -558 71 -129 2 -271 -1 -315 -6z m738 -248 c66 -29 140 -105
160 -166 71 -206 -70 -399 -279 -382 -162 13 -294 147 -294 297 0 120 83 236
191 269 52 16 167 7 222 -18z m-694 -24 c72 -48 101 -156 64 -234 -25 -53 -82
-89 -180 -112 -47 -11 -88 -22 -91 -25 -2 -3 1 -40 8 -81 7 -41 11 -77 9 -80
-3 -2 -27 -7 -54 -10 l-50 -7 -52 263 c-29 144 -50 265 -48 268 3 2 58 15 123
27 145 29 218 26 271 -9z m1351 -237 c96 -56 177 -104 179 -106 2 -2 -9 -20
-24 -41 -16 -21 -29 -39 -30 -41 -2 -2 -32 16 -69 39 -37 23 -68 40 -70 38 -2
-2 -54 -86 -116 -186 -62 -101 -117 -183 -121 -183 -16 0 -90 51 -87 59 2 4
51 86 111 183 59 96 107 180 107 185 0 5 -28 25 -62 46 -35 20 -69 41 -76 46
-11 7 -8 17 13 50 26 38 30 40 49 28 12 -8 100 -60 196 -117z m-1980 -67 c45
-87 103 -195 127 -240 l44 -82 -46 -26 c-25 -15 -47 -26 -49 -24 -7 8 -247
465 -249 473 -2 8 69 55 84 56 3 0 43 -71 89 -157z m-296 -302 l185 -184 -19
-27 c-40 -56 -42 -55 -119 16 l-72 67 -85 -84 -84 -84 70 -70 70 -71 -42 -42
-43 -41 -195 188 -195 189 42 43 43 44 88 -88 87 -87 84 84 84 84 -21 29 c-11
15 -50 57 -86 93 l-66 64 32 33 c18 19 38 32 45 31 7 -2 96 -86 197 -187z
m2715 20 c17 -21 31 -41 31 -44 0 -3 -71 -65 -157 -138 -87 -73 -162 -136
-167 -140 -4 -4 33 -54 83 -111 50 -57 91 -106 91 -109 0 -7 -62 -57 -77 -61
-5 -2 -64 61 -131 140 l-122 144 47 42 c173 154 359 316 365 316 3 0 20 -18
37 -39z m-1294 -66 c44 -9 127 -32 183 -51 496 -164 861 -593 947 -1112 21
-127 16 -405 -10 -519 -58 -261 -176 -486 -353 -674 -224 -238 -500 -385 -817
-434 -86 -14 -145 -16 -270 -12 -234 9 -369 43 -580 147 -147 73 -260 157
-386 286 -197 204 -324 454 -376 737 -25 137 -23 361 6 505 92 473 402 854
851 1045 95 40 249 82 355 96 101 14 355 6 450 -14z m-2024 -456 c23 -51 23
-52 4 -63 -10 -6 -37 -27 -58 -47 -36 -32 -41 -42 -45 -91 -5 -69 13 -108 70
-145 32 -22 53 -27 99 -28 65 0 97 18 137 76 21 30 23 42 18 96 l-5 61 40 16
c60 24 66 21 79 -35 20 -84 -6 -179 -69 -251 -134 -153 -408 -99 -476 92 -45
128 19 290 140 353 17 9 33 16 36 17 3 0 16 -23 30 -51z m3760 -179 c38 -96
69 -179 69 -186 0 -9 -80 -48 -85 -41 -1 1 -26 61 -55 132 -29 72 -53 131 -55
133 -5 5 -135 -50 -135 -57 0 -4 18 -52 40 -106 22 -54 40 -99 40 -101 0 -2
-90 -34 -96 -34 -1 0 -21 47 -44 105 -23 58 -46 105 -50 105 -23 0 -81 -33
-77 -43 3 -7 28 -68 57 -136 28 -68 48 -127 43 -131 -10 -10 -83 -33 -88 -28
-1 1 -35 86 -75 188 -56 144 -68 187 -58 193 21 14 482 185 492 183 5 -1 40
-80 77 -176z m-3819 -747 c39 -35 7 -98 -48 -91 -18 2 -34 13 -43 29 -13 24
-13 29 2 53 20 30 61 35 89 9z m3745 -9 c15 -24 15 -29 2 -53 -27 -48 -109
-32 -109 22 0 56 76 77 107 31z m-3538 -496 c10 -28 8 -36 -16 -70 -59 -83
-56 -77 -42 -82 8 -3 40 -10 71 -16 50 -10 58 -15 67 -42 6 -17 9 -34 6 -38
-4 -7 -233 -95 -264 -102 -7 -2 -20 11 -27 28 l-13 32 84 32 c47 17 85 33 85
35 0 2 -27 9 -60 16 -33 6 -63 16 -66 21 -3 4 9 27 27 51 18 23 37 48 42 55 5
6 -21 0 -59 -14 -102 -39 -108 -40 -122 -8 -7 14 -11 28 -9 30 6 7 262 103
274 104 6 0 16 -14 22 -32z m3568 -52 c-2 -6 -17 -49 -32 -96 -15 -47 -30 -88
-34 -92 -4 -5 -69 13 -145 38 l-138 46 6 31 c3 17 8 32 10 34 2 2 52 -12 112
-31 60 -20 112 -32 115 -28 4 4 14 32 24 62 10 30 19 58 22 62 6 11 65 -13 60
-26z m-3338 -420 c33 -49 61 -92 61 -96 0 -4 -11 -15 -24 -23 -23 -16 -24 -15
-67 48 -24 36 -47 65 -50 65 -3 0 -13 -6 -23 -13 -18 -13 -17 -17 18 -68 20
-29 36 -57 36 -60 0 -4 -11 -14 -25 -23 -24 -16 -25 -16 -61 39 -38 57 -53 65
-74 41 -9 -12 -4 -26 29 -75 23 -33 41 -64 41 -70 0 -13 -38 -34 -49 -27 -5 3
-36 46 -69 94 l-61 89 126 87 c70 47 127 85 128 83 1 -1 30 -42 64 -91z m3191
37 c0 -3 -23 -46 -51 -95 -39 -67 -55 -88 -67 -83 -9 3 -69 37 -134 76 -124
73 -122 70 -90 117 7 10 33 -1 112 -47 l104 -60 38 64 c39 65 39 65 63 49 14
-9 25 -19 25 -21z m-350 -272 l110 -93 -21 -29 -21 -29 -27 22 c-131 111 -201
172 -201 178 0 12 32 51 41 48 5 -2 58 -45 119 -97z m-2660 14 c25 -24 26 -29
19 -77 -5 -29 -7 -53 -5 -55 2 -2 26 2 55 9 48 11 52 10 76 -12 14 -13 22 -27
18 -31 -5 -3 -42 -14 -84 -23 l-77 -17 -12 -95 -13 -95 -32 31 c-31 30 -32 33
-23 82 5 27 7 52 4 55 -3 3 -28 0 -55 -7 -47 -11 -53 -10 -82 11 -38 27 -33
30 73 54 85 20 80 13 94 133 3 34 9 62 12 62 3 0 18 -11 32 -25z m2451 -153
c15 -20 20 -38 17 -69 l-3 -43 50 -16 c69 -23 69 -22 35 -50 l-30 -26 -51 17
c-40 14 -56 15 -76 6 l-24 -11 30 -39 30 -38 -24 -23 c-13 -12 -28 -19 -34
-16 -6 4 -49 57 -96 118 -64 83 -82 114 -74 124 23 28 119 96 146 103 37 10
78 -5 104 -37z m-2122 -121 l24 -19 -78 -126 c-43 -69 -81 -126 -84 -126 -19
0 -52 34 -46 48 10 27 147 242 154 242 3 0 17 -9 30 -19z m1738 -75 c2 -1 0
-17 -3 -35 -6 -29 -9 -31 -38 -26 -39 7 -93 -24 -102 -60 -13 -52 19 -108 70
-121 45 -11 115 41 89 67 -8 8 -17 8 -34 -1 -19 -11 -24 -10 -36 6 -22 30 -15
40 45 67 l57 27 27 -58 c15 -31 27 -63 28 -69 0 -25 -76 -89 -122 -102 -102
-29 -198 43 -198 149 0 79 43 136 120 159 30 9 87 7 97 -3z m-1411 -72 c31
-15 74 -57 74 -73 0 -4 -12 -14 -26 -22 -26 -16 -28 -15 -53 12 -38 41 -88 43
-126 4 -25 -24 -33 -73 -19 -110 10 -26 62 -48 100 -41 27 6 35 3 44 -14 17
-31 7 -47 -35 -54 -101 -19 -209 81 -191 177 21 110 132 168 232 121z m393
-90 c3 -2 91 -303 91 -311 0 -2 -13 -3 -29 -3 -32 0 -45 13 -54 51 -6 22 -14
27 -53 33 -74 10 -81 8 -94 -25 -11 -26 -17 -30 -47 -27 -18 2 -34 7 -35 11 0
5 35 71 78 148 78 138 79 139 109 133 17 -4 32 -8 34 -10z m540 -116 c7 -73
15 -141 18 -150 3 -15 -2 -18 -30 -18 -31 0 -44 10 -112 82 l-76 82 7 -92 7
-92 -27 0 c-14 0 -29 0 -33 0 -9 -1 -31 175 -32 253 -1 47 -1 47 31 47 27 0
44 -12 105 -77 l73 -78 -6 88 -7 87 35 0 35 0 12 -132z"/>
<path d="M2602 4291 c-70 -44 -98 -137 -64 -213 41 -94 157 -137 231 -86 53
36 74 71 79 131 5 65 -21 123 -70 158 -45 33 -132 37 -176 10z"/>
<path d="M1913 4288 c-57 -10 -57 -11 -43 -78 21 -97 14 -88 67 -79 96 18 123
39 123 97 0 55 -54 77 -147 60z"/>
<path d="M2145 3629 c-547 -85 -976 -493 -1092 -1039 -25 -120 -25 -392 0
-510 116 -541 528 -943 1061 -1035 115 -20 337 -20 452 0 460 80 848 409 1008
853 89 249 95 568 15 829 -94 302 -324 587 -604 745 -98 56 -224 105 -335 133
-88 22 -133 27 -275 30 -93 2 -197 0 -230 -6z m707 -337 c30 -6 49 -21 93 -72
l56 -65 -4 -65 c-3 -36 -10 -77 -16 -92 -10 -27 -13 -28 -88 -28 l-77 0 43 44
44 45 -30 68 -31 68 -83 -4 c-99 -4 -127 -15 -192 -73 -39 -34 -51 -52 -57
-88 -13 -66 -12 -126 3 -138 7 -6 40 -14 75 -18 34 -3 62 -11 62 -16 0 -22
-22 -47 -50 -56 l-30 -11 22 -38 c12 -21 32 -51 46 -67 34 -43 81 -139 87
-183 4 -27 -1 -60 -19 -112 -29 -82 -156 -303 -189 -326 l-21 -15 22 -39 c15
-25 22 -56 22 -89 l0 -50 53 -26 c28 -14 88 -52 133 -84 45 -33 105 -67 133
-78 29 -10 57 -27 62 -37 21 -37 -35 -139 -111 -204 l-43 -37 -206 -7 c-131
-5 -221 -4 -246 3 -22 5 -60 14 -85 18 -112 22 -184 48 -199 71 -51 82 -142
215 -191 279 -105 139 -169 239 -185 292 -10 32 -20 122 -26 223 -9 162 -8
176 15 288 23 107 29 122 66 167 95 113 157 149 262 151 24 0 52 4 63 8 18 7
17 9 -10 27 -20 13 -47 19 -87 19 -32 0 -58 2 -58 5 1 11 95 64 112 63 11 -1
60 -14 109 -28 76 -23 93 -25 107 -14 9 8 46 39 82 70 153 132 285 229 319
235 110 21 189 26 243 16z"/>
<path d="M2035 2769 c-249 -24 -294 -102 -295 -502 l0 -178 87 -127 c187 -273
265 -371 314 -397 40 -21 331 -39 408 -25 69 12 147 46 155 67 4 8 -19 31 -57
58 -34 24 -76 55 -93 69 -18 14 -44 26 -58 26 -23 0 -26 4 -28 38 -1 20 -1 59
1 85 2 38 -2 54 -18 71 -26 28 -38 104 -21 137 7 13 40 64 73 114 118 176 136
251 83 355 -31 61 -133 200 -147 200 -5 0 -28 -13 -51 -30 -31 -23 -52 -30
-88 -30 -50 0 -67 10 -93 53 -19 30 -27 31 -172 16z m150 -139 c94 -24 168
-26 185 -5 20 24 31 18 97 -51 82 -86 82 -108 -2 -224 -18 -25 -55 -89 -84
-142 -46 -88 -51 -103 -51 -162 0 -96 77 -316 130 -371 103 -107 -83 -95 -197
13 -79 74 -113 128 -250 392 -54 105 -55 105 -48 175 3 38 10 98 16 132 11 60
13 63 48 74 20 6 73 13 119 16 90 6 108 -2 138 -59 22 -43 17 -84 -26 -180
-22 -50 -40 -99 -40 -109 0 -23 -36 -48 -61 -42 -37 10 -67 100 -50 146 14 37
57 37 73 1 l12 -25 17 33 c24 44 25 126 2 144 -10 7 -44 14 -76 14 -53 0 -58
-2 -69 -27 -7 -17 -11 -70 -10 -133 3 -102 4 -107 41 -170 44 -75 93 -169 117
-224 19 -41 109 -136 130 -136 9 0 6 15 -11 54 -41 93 -78 228 -79 291 -1 55
5 73 72 215 106 223 101 208 72 230 -50 39 -92 52 -185 57 -76 5 -109 2 -183
-17 -124 -30 -125 -33 -130 -221 l-4 -146 39 -114 c22 -63 61 -147 86 -188 26
-41 44 -77 42 -80 -19 -19 -151 139 -212 254 -36 68 -38 74 -41 190 -5 126 18
304 44 357 16 31 33 38 128 48 111 12 118 11 201 -10z"/>
<path d="M3458 939 c-33 -24 -34 -36 -8 -68 l20 -23 36 27 c27 21 34 33 32 53
-4 35 -42 40 -80 11z"/>
<path d="M2122 514 l-21 -42 34 -4 c38 -4 40 -1 21 52 l-13 35 -21 -41z"/>
</g>
</svg>
