<?xml version="1.0" standalone="no"?>
<!DOCTYPE svg PUBLIC "-//W3C//DTD SVG 20010904//EN"
 "http://www.w3.org/TR/2001/REC-SVG-20010904/DTD/svg10.dtd">
<svg version="1.0" xmlns="http://www.w3.org/2000/svg"
 width="600.000000pt" height="600.000000pt" viewBox="0 0 600.000000 600.000000"
 preserveAspectRatio="xMidYMid meet">
<metadata>
Created by potrace 1.11, written by Peter Selinger 2001-2013
</metadata>
<g transform="translate(0.000000,600.000000) scale(0.100000,-0.100000)"
fill="#000000" stroke="none">
<path d="M2785 5050 c-162 -25 -224 -40 -339 -80 -311 -110 -591 -310 -785
-560 -59 -75 -64 -95 -24 -79 15 6 46 13 68 16 22 3 54 12 72 20 68 31 144
129 164 209 24 97 56 135 164 195 156 87 270 99 400 42 94 -42 127 -46 194
-23 53 19 111 67 137 113 12 22 76 46 122 47 17 0 32 4 32 9 0 5 18 -1 41 -12
22 -11 57 -21 77 -22 52 -3 52 -3 52 -21 0 -12 -6 -15 -26 -10 -22 6 -24 4
-15 -11 16 -31 54 -61 109 -86 66 -31 109 -28 205 15 95 42 172 48 264 19 68
-21 177 -77 226 -117 27 -22 67 -82 67 -101 0 -36 47 -128 87 -173 53 -59 98
-84 168 -95 28 -4 58 -11 68 -16 30 -17 19 12 -29 76 -66 87 -144 166 -177
178 -18 6 -26 14 -23 23 7 18 -124 123 -244 198 -172 107 -375 188 -567 227
-116 23 -392 34 -488 19z"/>
<path d="M2927 4745 c-1 -2 -40 -5 -87 -8 -79 -6 -103 -9 -170 -22 -14 -3 -34
-7 -45 -9 -48 -9 -196 -56 -255 -81 -454 -189 -796 -536 -935 -950 -19 -57
-37 -116 -40 -132 -3 -15 -7 -40 -10 -54 -15 -80 -22 -164 -20 -239 2 -102 28
-164 92 -227 80 -77 -29 -72 1511 -71 1120 0 1385 3 1422 14 62 18 123 73 157
142 27 55 28 62 26 192 -2 155 -33 299 -97 456 -203 499 -715 888 -1276 969
-90 13 -265 26 -273 20z m171 -79 c46 -3 87 -8 90 -10 12 -7 105 -20 148 -20
24 -1 47 -8 58 -18 10 -10 23 -18 30 -18 21 0 182 -67 269 -111 43 -21 87 -39
98 -39 11 0 18 -4 14 -9 -3 -6 21 -28 54 -51 380 -257 614 -646 646 -1072 11
-136 -21 -215 -110 -273 -30 -20 -51 -20 -1420 -20 -1275 0 -1392 1 -1420 17
-47 26 -71 50 -97 98 -60 116 2 468 123 695 149 282 392 516 687 664 138 69
316 130 427 146 22 3 47 9 55 12 8 3 65 8 125 10 61 3 112 7 113 8 2 2 9 2 15
0 7 -2 50 -6 95 -9z m415 -1666 c3 -11 1 -20 -4 -20 -5 0 -9 9 -9 20 0 11 2
20 4 20 2 0 6 -9 9 -20z m-161 -22 c-7 -7 -12 -8 -12 -2 0 6 3 14 7 17 3 4 9
5 12 2 2 -3 -1 -11 -7 -17z"/>
<path d="M2446 4135 c-63 -16 -95 -41 -127 -99 -26 -47 -38 -138 -22 -162 12
-17 47 -33 67 -30 22 3 56 32 57 48 5 87 48 129 106 105 23 -10 43 -53 43 -92
0 -49 79 -78 115 -41 40 40 14 162 -48 223 -46 47 -121 65 -191 48z"/>
<path d="M3353 4121 c-47 -22 -100 -87 -108 -135 -12 -70 -12 -82 1 -107 16
-32 45 -41 84 -28 31 11 38 23 46 78 16 103 124 99 140 -4 7 -49 40 -86 72
-80 9 2 22 4 28 4 7 1 19 16 27 34 30 63 -8 169 -80 224 -48 37 -147 43 -210
14z"/>
<path d="M3454 3639 c-53 -30 -172 -65 -264 -77 -73 -9 -369 -9 -446 1 -88 11
-170 34 -248 69 -65 31 -69 31 -82 14 -11 -16 -11 -24 1 -51 45 -110 167 -243
267 -293 103 -50 170 -66 288 -65 148 1 264 38 365 117 44 34 105 97 105 108
0 4 10 18 23 32 32 34 78 131 71 150 -10 25 -27 24 -80 -5z m-269 -109 c3 -5
1 -10 -4 -10 -6 0 -11 5 -11 10 0 6 2 10 4 10 3 0 8 -4 11 -10z m-375 -201 c0
-6 -4 -7 -10 -4 -5 3 -10 11 -10 16 0 6 5 7 10 4 6 -3 10 -11 10 -16z"/>
<path d="M1514 2784 c-50 -18 -111 -74 -131 -122 -9 -20 -18 -67 -21 -104 -8
-119 44 -223 134 -267 50 -26 77 -28 208 -17 32 3 69 1 82 -4 29 -12 35 5 37
111 2 60 -1 74 -14 77 -9 1 -20 -8 -27 -22 -13 -29 -83 -72 -130 -81 -42 -7
-101 23 -124 63 -48 82 2 239 85 271 33 12 42 12 82 -4 25 -9 59 -28 75 -42
16 -13 34 -22 40 -18 13 8 13 104 -1 143 -10 28 -12 30 -40 20 -16 -5 -42 -7
-57 -3 -55 14 -157 14 -198 -1z m106 -458 c0 -3 -4 -8 -10 -11 -5 -3 -10 -1
-10 4 0 6 5 11 10 11 6 0 10 -2 10 -4z"/>
<path d="M1906 2793 c-11 -11 -7 -35 9 -47 20 -16 25 -50 31 -226 6 -142 4
-159 -14 -200 -12 -24 -20 -46 -18 -47 1 -2 45 -5 97 -8 104 -6 133 2 111 32
-33 48 -50 148 -29 177 14 19 120 35 130 20 3 -5 8 -36 12 -70 5 -46 2 -71
-11 -103 -9 -23 -14 -44 -11 -48 8 -7 172 -6 198 2 19 6 19 8 4 31 -10 16 -17
55 -20 117 -2 50 -5 94 -5 97 -1 3 -1 49 -1 104 0 86 3 101 21 118 30 28 26
48 -12 49 -54 2 -193 -2 -196 -6 -2 -2 6 -22 18 -45 19 -37 23 -88 11 -137 -2
-7 -93 -2 -116 7 -23 9 -25 14 -24 61 2 40 8 56 27 74 24 22 24 23 6 33 -23
12 -208 25 -218 15z"/>
<path d="M2508 2780 l-23 -18 29 -30 c25 -27 29 -39 31 -104 2 -40 6 -85 9
-101 2 -15 0 -25 -4 -22 -5 3 -8 -26 -8 -63 1 -44 -6 -86 -17 -116 -14 -37
-16 -49 -6 -55 18 -11 173 -11 194 1 17 9 17 10 -3 35 -24 31 -28 124 -6 142
11 10 25 1 71 -43 l56 -55 -15 -30 c-21 -41 -8 -48 95 -51 103 -3 117 -1 115
16 -1 9 -23 41 -47 73 -53 65 -89 123 -89 141 0 7 11 21 25 32 40 32 54 67 46
120 -15 93 -54 122 -181 133 -193 16 -248 15 -272 -5z m240 -95 c19 -5 23 -13
20 -38 -2 -25 -11 -36 -43 -54 -47 -26 -55 -19 -55 49 0 58 9 63 78 43z"/>
<path d="M3123 2792 c-29 -4 -29 -10 0 -44 21 -24 23 -38 26 -155 2 -70 4
-150 6 -178 2 -32 -4 -65 -16 -94 -10 -24 -17 -46 -15 -50 3 -4 50 -8 106 -8
110 -2 124 6 96 49 -16 25 -25 128 -27 306 0 90 3 117 15 131 9 10 16 25 16
33 0 13 -15 15 -92 14 -51 0 -103 -2 -115 -4z"/>
<path d="M3529 2782 c-40 -20 -87 -85 -92 -127 -5 -41 20 -112 46 -130 21 -15
95 -40 147 -49 42 -7 57 -16 69 -42 15 -33 14 -49 -4 -64 -41 -34 -141 -4
-212 65 -48 46 -63 38 -59 -33 2 -32 7 -73 11 -94 6 -32 10 -36 33 -32 14 3
28 7 31 9 4 2 27 0 51 -5 127 -23 143 -22 200 13 70 42 94 75 92 127 -4 91
-52 141 -173 176 -72 21 -99 39 -99 68 0 24 34 43 70 40 8 -1 27 -2 42 -3 17
-1 44 -16 69 -38 49 -44 58 -36 53 45 -5 78 -8 82 -51 81 -21 -1 -72 1 -114 4
-60 4 -84 2 -110 -11z"/>
<path d="M4103 2784 c-3 -8 2 -26 12 -40 23 -36 26 -51 32 -214 5 -128 3 -151
-15 -202 -15 -43 -17 -58 -7 -61 19 -8 179 -2 193 7 9 5 8 12 -2 29 -8 12 -14
43 -15 69 0 51 0 51 74 64 88 15 166 58 191 106 18 35 18 121 0 156 -15 29
-70 85 -80 82 -4 -1 -19 1 -34 4 -15 4 -98 8 -185 10 -131 4 -159 2 -164 -10z
m282 -106 c23 -10 26 -16 21 -42 -6 -32 -56 -86 -80 -86 -8 0 -16 17 -20 46
-11 86 -9 94 24 94 16 0 41 -5 55 -12z"/>
<path d="M1464 2140 c-45 -4 -85 -10 -91 -13 -10 -6 -17 -163 -8 -178 3 -4 24
5 46 20 45 33 114 50 132 32 12 -12 14 -39 18 -264 1 -109 0 -121 -25 -168
-14 -28 -26 -52 -26 -52 0 -1 56 -2 125 -1 136 1 162 9 132 42 -9 10 -17 26
-17 35 0 9 -3 18 -8 21 -7 4 -6 293 1 356 4 39 16 50 51 50 23 0 44 -10 67
-30 19 -17 43 -29 54 -28 18 3 20 11 21 73 1 107 7 103 -153 103 -76 1 -160 3
-188 5 -27 2 -86 0 -131 -3z"/>
<path d="M2178 2139 c-10 -6 -8 -14 8 -36 l21 -29 -27 -94 c-14 -52 -30 -106
-34 -119 -6 -16 -5 -21 3 -17 6 4 11 2 11 -3 0 -6 -6 -11 -12 -11 -8 0 -28
-47 -47 -108 -28 -89 -40 -113 -72 -144 -55 -53 -51 -64 19 -61 31 1 73 2 92
2 47 2 65 14 55 37 -31 73 3 99 132 103 63 2 73 -1 86 -19 12 -17 13 -29 5
-53 -20 -64 -24 -62 102 -63 149 -1 164 5 120 50 -37 41 -175 375 -187 454 -5
35 -2 49 16 73 20 26 20 29 4 30 -10 1 -31 3 -48 5 -75 8 -235 10 -247 3z
m162 -345 c0 -16 -31 -23 -57 -13 -19 7 -20 11 -9 41 22 63 28 66 48 23 9 -22
18 -45 18 -51z m159 -73 c-6 -17 -8 -38 -5 -47 4 -9 2 -12 -5 -8 -7 4 -8 20
-3 43 4 20 6 45 6 56 -1 17 0 18 8 4 6 -11 6 -28 -1 -48z m-128 -24 c-10 -9
-11 -8 -5 6 3 10 9 15 12 12 3 -3 0 -11 -7 -18z"/>
<path d="M2950 2140 c-201 -54 -276 -299 -155 -505 56 -97 216 -153 276 -99
14 13 19 13 26 2 5 -8 30 -13 73 -13 36 -1 73 -4 82 -9 24 -11 35 38 34 143
-1 94 -14 113 -43 63 -9 -16 -39 -45 -66 -63 -42 -29 -58 -34 -108 -34 -64 0
-98 18 -136 74 -31 46 -25 147 13 225 15 31 31 56 36 56 4 0 8 8 8 17 0 9 3
13 7 10 3 -4 12 -2 19 3 17 15 85 20 106 9 14 -7 16 -6 12 6 -4 8 -1 15 4 15
6 0 13 -8 17 -17 8 -24 112 -96 120 -83 11 18 8 124 -5 167 l-13 41 -35 -12
c-28 -10 -49 -10 -106 1 -73 14 -122 15 -166 3z m-160 -195 c0 -5 -5 -3 -10 5
-5 8 -10 20 -10 25 0 6 5 3 10 -5 5 -8 10 -19 10 -25z"/>
<path d="M3600 2130 c-90 -30 -166 -111 -200 -211 -21 -62 -11 -174 23 -249
61 -139 227 -194 398 -134 71 25 150 102 168 164 39 132 -12 322 -109 403 -58
49 -179 61 -280 27z m173 -146 c56 -42 69 -108 41 -220 -32 -125 -117 -172
-190 -106 -42 38 -58 90 -52 172 6 81 31 137 75 166 37 25 82 20 126 -12z
m189 -196 c-7 -7 -12 -8 -12 -2 0 14 12 26 19 19 2 -3 -1 -11 -7 -17z"/>
<path d="M4243 2140 c-48 -11 -81 -36 -114 -88 -46 -73 -35 -182 25 -227 30
-22 105 -48 175 -60 19 -3 42 -10 53 -16 22 -12 46 -67 40 -91 -5 -20 -59 -44
-92 -39 -44 6 -144 62 -183 103 -54 56 -69 42 -62 -61 7 -111 16 -137 46 -132
41 8 125 3 236 -15 39 -6 133 39 178 86 52 54 42 178 -18 231 -33 29 -119 68
-194 88 -51 14 -86 47 -77 73 3 11 0 26 -7 34 -6 8 -9 18 -5 22 4 4 13 0 19
-9 8 -11 19 -14 32 -10 18 6 33 7 105 2 11 0 40 -19 64 -41 66 -61 76 -54 70
45 -7 104 -6 101 -71 101 -32 0 -87 2 -123 5 -36 3 -80 2 -97 -1z"/>
<path d="M1633 1335 c-10 -8 -14 -17 -9 -22 5 -4 11 -2 13 5 3 6 11 12 19 12
17 0 20 -95 3 -105 -16 -10 -22 1 -22 40 0 19 -4 32 -9 29 -9 -6 -11 -45 -2
-68 8 -21 43 -21 51 0 5 14 7 50 4 95 -1 23 -25 30 -48 14z"/>
<path d="M2348 1342 c-15 -3 -18 -15 -18 -68 0 -61 1 -64 24 -64 28 0 36 16
36 75 0 45 -14 64 -42 57z m27 -34 c3 -13 4 -34 1 -48 -2 -14 -5 -29 -5 -33
-1 -5 -7 -7 -13 -5 -19 7 -21 108 -3 108 8 0 17 -10 20 -22z"/>
<path d="M2480 1343 c-11 -3 -15 -16 -13 -51 1 -26 2 -55 2 -64 1 -12 9 -18
27 -18 14 0 23 4 19 10 -3 5 -12 7 -20 3 -11 -4 -15 2 -15 21 0 16 6 26 15 26
8 0 15 4 15 10 0 5 -7 7 -15 4 -11 -5 -15 1 -15 19 0 19 6 26 23 29 15 2 18 5
7 9 -8 3 -22 4 -30 2z"/>
<path d="M3208 1343 c-17 -4 -20 -12 -21 -58 -1 -66 3 -75 28 -75 17 0 25 5
25 18 0 14 -2 15 -10 2 -18 -29 -33 4 -31 68 1 32 24 45 34 20 3 -8 6 -7 6 4
1 20 -8 26 -31 21z"/>
<path d="M3690 1335 c-6 -7 -10 -37 -8 -67 3 -45 6 -53 24 -56 12 -2 24 4 27
12 4 9 2 16 -2 16 -5 0 -11 -5 -13 -12 -8 -23 -24 1 -26 39 -2 47 13 76 28 53
8 -13 10 -13 10 1 0 22 -26 31 -40 14z"/>
<path d="M4053 1343 c-24 -9 -12 -73 13 -73 8 0 14 -10 14 -25 0 -29 -14 -33
-30 -7 -10 15 -10 15 -8 -3 4 -27 48 -34 49 -8 2 33 -3 47 -22 61 -10 7 -19
20 -19 28 0 17 26 19 33 2 4 -8 6 -7 6 3 1 18 -17 29 -36 22z"/>
<path d="M4413 1337 c-4 -7 -8 -38 -8 -69 l-1 -58 31 1 c23 1 25 3 8 6 -27 5
-34 53 -8 53 8 0 15 4 15 9 0 5 -6 8 -12 7 -29 -3 -24 42 5 46 l22 3 -22 7
c-13 3 -26 1 -30 -5z"/>
<path d="M1485 1290 c0 -27 3 -50 7 -50 5 0 8 7 8 15 0 8 7 15 15 15 10 0 15
-10 15 -32 0 -17 3 -28 7 -24 10 10 11 116 1 122 -4 3 -8 -8 -8 -24 0 -19 -5
-29 -15 -29 -10 0 -15 10 -15 29 0 15 -3 28 -8 28 -4 0 -7 -22 -7 -50z"/>
<path d="M1762 1273 c1 -64 1 -66 8 -23 l7 45 8 -32 c4 -18 11 -30 16 -27 12
7 12 44 0 44 -5 0 -12 14 -16 30 -12 53 -25 32 -23 -37z"/>
<path d="M1816 1314 c-4 -14 -2 -31 3 -38 5 -6 8 -24 7 -39 -2 -15 1 -27 5
-27 5 0 9 18 9 41 0 29 -3 38 -12 33 -10 -6 -10 -4 0 7 14 15 16 49 3 49 -5 0
-12 -12 -15 -26z"/>
<path d="M1919 1330 c0 -5 -1 -30 -1 -55 0 -25 1 -49 1 -55 1 -5 13 -10 29
-10 20 0 23 3 12 9 -8 6 -18 7 -22 5 -4 -3 -8 6 -8 20 0 16 6 26 15 26 8 0 15
4 15 10 0 5 -7 7 -15 4 -11 -5 -15 1 -15 19 0 19 6 27 23 30 19 4 18 4 -5 6
-16 0 -28 -3 -29 -9z"/>
<path d="M2041 1275 c-1 -36 2 -65 6 -65 5 0 7 19 6 43 -2 40 -2 41 9 15 13
-30 28 -37 28 -13 0 8 5 15 10 15 6 0 8 -10 4 -24 -3 -13 -1 -26 4 -30 5 -3
10 20 11 54 2 66 -14 89 -25 35 -8 -45 -20 -45 -28 0 -11 56 -23 41 -25 -30z"/>
<path d="M2215 1329 c-11 -32 -25 -112 -20 -117 9 -9 14 3 19 42 5 39 16 62
16 33 0 -9 4 -17 10 -17 6 0 6 9 1 23 -5 12 -9 26 -9 30 -1 16 -12 20 -17 6z"/>
<path d="M2685 1323 c1 -10 10 -36 20 -57 12 -29 19 -36 25 -25 6 8 4 19 -4
29 -7 8 -16 27 -20 43 -7 30 -24 38 -21 10z"/>
<path d="M2740 1328 c0 -7 -3 -24 -7 -37 -4 -16 -3 -22 5 -17 7 4 12 -7 15
-31 2 -24 4 -12 5 30 1 39 -2 67 -8 67 -5 0 -10 -6 -10 -12z"/>
<path d="M2840 1275 c0 -64 0 -65 28 -64 22 0 24 2 8 8 -11 4 -21 17 -23 29
-2 17 2 22 20 23 l22 0 -23 9 c-28 12 -26 42 3 52 17 5 15 6 -7 7 -28 1 -28 0
-28 -64z"/>
<path d="M2971 1310 c8 -21 8 -39 0 -62 -6 -17 -9 -34 -6 -37 3 -3 8 5 12 17
3 12 9 22 13 22 4 0 10 -10 13 -22 4 -12 9 -20 12 -17 3 3 0 20 -6 37 -8 23
-8 41 0 62 6 18 6 30 0 30 -5 0 -9 -7 -9 -15 0 -8 -4 -15 -10 -15 -5 0 -10 7
-10 15 0 8 -4 15 -9 15 -6 0 -6 -12 0 -30z"/>
<path d="M3094 1285 c0 -30 3 -55 8 -55 4 0 8 25 8 55 0 30 -3 55 -7 55 -5 0
-8 -25 -9 -55z"/>
<path d="M3326 1303 c-4 -21 -9 -51 -12 -67 -4 -20 -3 -26 5 -22 6 4 9 12 6
17 -4 5 3 9 14 9 11 0 22 -8 24 -17 3 -13 5 -12 6 5 1 31 -19 112 -29 112 -4
0 -11 -17 -14 -37z m20 -40 c-11 -11 -19 6 -11 24 8 17 8 17 12 0 3 -10 2 -21
-1 -24z"/>
<path d="M3447 1279 c3 -75 13 -92 14 -23 l0 49 16 -47 c9 -27 20 -48 24 -48
5 0 9 30 9 67 0 36 -3 63 -7 59 -4 -4 -6 -26 -5 -49 2 -44 -1 -41 -29 31 -15
39 -24 24 -22 -39z"/>
<path d="M3812 1280 c3 -62 4 -65 28 -65 24 0 25 3 28 63 2 34 -1 62 -6 62 -5
0 -8 -19 -7 -42 2 -54 -4 -80 -19 -75 -6 2 -12 28 -13 57 -2 29 -5 56 -8 59
-4 3 -5 -24 -3 -59z"/>
<path d="M3950 1274 c0 -37 2 -65 6 -62 8 9 11 119 2 124 -4 3 -8 -25 -8 -62z"/>
<path d="M4170 1277 c0 -37 3 -67 8 -67 9 0 8 117 -1 126 -4 4 -7 -23 -7 -59z"/>
<path d="M4265 1276 c0 -63 9 -83 11 -25 2 42 4 46 15 24 6 -15 7 -11 3 15
-13 75 -29 67 -29 -14z"/>
<path d="M4308 1288 c-6 -53 -2 -78 11 -78 9 0 8 116 0 125 -4 3 -9 -18 -11
-47z"/>
<path d="M2684 1251 c0 -22 4 -37 7 -35 7 4 4 62 -3 70 -3 2 -5 -13 -4 -35z"/>
<path d="M2227 1253 c-3 -5 4 -16 14 -26 17 -18 17 -18 14 0 -2 10 -4 21 -4
26 -1 4 -5 7 -10 7 -6 0 -12 -3 -14 -7z"/>
<path d="M1485 1220 c3 -5 8 -10 11 -10 2 0 4 5 4 10 0 6 -5 10 -11 10 -5 0
-7 -4 -4 -10z"/>
</g>
</svg>
